<?xml version="1.0" encoding="utf-8"?>
<!-- Generator: Adobe Illustrator 16.0.0, SVG Export Plug-In . SVG Version: 6.00 Build 0)  -->
<!DOCTYPE svg PUBLIC "-//W3C//DTD SVG 1.1//EN" "http://www.w3.org/Graphics/SVG/1.1/DTD/svg11.dtd">
<svg version="1.1" id="图形" xmlns="http://www.w3.org/2000/svg" xmlns:xlink="http://www.w3.org/1999/xlink" x="0px" y="0px"
	 width="1000.637px" height="1000.678px" viewBox="0 0 1000.637 1000.678" enable-background="new 0 0 1000.637 1000.678"
	 xml:space="preserve">
<g>
	<g>
		<g>
			<path d="M500.32,62.4c-241.861,0-437.939,196.078-437.939,437.938c0,241.861,196.078,437.938,437.938,437.938
				c241.858,0,437.937-196.077,437.937-437.938C938.256,258.479,742.179,62.4,500.32,62.4z M500.32,896.568
				c-218.847,0-396.229-177.427-396.229-396.229c0-218.848,177.382-396.229,396.229-396.229
				c218.808,0,396.228,177.383,396.228,396.229C896.548,719.142,719.126,896.568,500.32,896.568z"/>
		</g>
	</g>
	<g>
		<g>
			<rect x="312.631" y="479.484" width="375.375" height="41.709"/>
		</g>
	</g>
	<g>
		<g>
			<rect x="479.465" y="312.65" width="41.708" height="375.376"/>
		</g>
	</g>
</g>
</svg>
