<?xml version="1.0" encoding="utf-8"?>
<!-- Generator: Adobe Illustrator 16.0.0, SVG Export Plug-In . SVG Version: 6.00 Build 0)  -->
<!DOCTYPE svg PUBLIC "-//W3C//DTD SVG 1.1//EN" "http://www.w3.org/Graphics/SVG/1.1/DTD/svg11.dtd">
<svg version="1.1" id="图形" xmlns="http://www.w3.org/2000/svg" xmlns:xlink="http://www.w3.org/1999/xlink" x="0px" y="0px"
	 width="1000.637px" height="1000.678px" viewBox="0 0 1000.637 1000.678" enable-background="new 0 0 1000.637 1000.678"
	 xml:space="preserve">
<path id="椭圆_5" d="M500.318,63.036c241.53,0,437.305,195.774,437.305,437.305c0,241.53-195.773,437.301-437.305,437.301
	c-241.53,0-437.304-195.771-437.304-437.301C63.014,258.81,258.788,63.036,500.318,63.036z"/>
<g transform="translate(-304 -213)">
	<path id="形状_1_拷贝_4" fill="#FFFFFF" d="M842.832,713.91h205.137c10.859,0.061,19.705-8.664,19.77-19.492
		c0-0.031,0-0.031,0-0.063l0,0c0-10.829-8.786-19.614-19.646-19.614H842.832c-2.868,0.03-5.218-2.256-5.248-5.124
		c0-0.031,0-0.091,0-0.122v-204.59c0.184-10.737-8.054-19.705-18.729-20.438c-10.858-0.306-19.918,8.236-20.256,19.096
		c0,0.182,0,0.365,0,0.519v205.29c0,2.896-2.348,5.248-5.244,5.248l0,0H589.008c-10.798-0.123-19.827,8.267-20.498,19.063
		c-0.306,10.859,8.266,19.919,19.125,20.227c0.153,0,0.335,0,0.489,0h204.742c2.867,0.029,5.216,2.348,5.246,5.245V924.6
		c-0.063,10.738,8.634,19.583,19.431,19.645c0.093,0,0.215,0,0.306,0l0,0c10.829,0,19.584-8.786,19.613-19.645V719.34
		c-0.091-2.897,2.167-5.34,5.064-5.43C842.618,713.91,842.739,713.91,842.832,713.91z"/>
</g>
<g transform="translate(-304 -213)">
	<path id="形状_1_拷贝_4_1_" fill="none" stroke="#FFFFFF" d="M842.832,713.91h205.137c10.859,0.062,19.705-8.664,19.771-19.492
		c0-0.031,0-0.031,0-0.063l0,0c0-10.829-8.787-19.614-19.646-19.614H842.832c-2.867,0.03-5.218-2.256-5.248-5.124
		c0-0.031,0-0.091,0-0.122v-204.59c0.185-10.737-8.054-19.705-18.729-20.438c-10.857-0.306-19.918,8.236-20.255,19.096
		c0,0.182,0,0.365,0,0.519v205.29c0,2.897-2.348,5.248-5.245,5.248l0,0H589.008c-10.798-0.123-19.827,8.267-20.498,19.064
		c-0.306,10.859,8.266,19.919,19.125,20.226c0.153,0,0.335,0,0.489,0h204.742c2.867,0.029,5.216,2.348,5.246,5.245V924.6
		c-0.063,10.738,8.634,19.583,19.431,19.645c0.094,0,0.215,0,0.307,0l0,0c10.829,0,19.584-8.786,19.613-19.645V719.34
		c-0.092-2.898,2.166-5.34,5.063-5.43C842.619,713.91,842.74,713.91,842.832,713.91z"/>
</g>
</svg>
