<?xml version="1.0" encoding="utf-8"?>
<!-- Generator: Adobe Illustrator 16.0.0, SVG Export Plug-In . SVG Version: 6.00 Build 0)  -->
<!DOCTYPE svg PUBLIC "-//W3C//DTD SVG 1.1//EN" "http://www.w3.org/Graphics/SVG/1.1/DTD/svg11.dtd">
<svg version="1.1" id="图形" xmlns="http://www.w3.org/2000/svg" xmlns:xlink="http://www.w3.org/1999/xlink" x="0px" y="0px"
	 width="1000.637px" height="1000.678px" viewBox="15.167 -16.333 1000.637 1000.678"
	 enable-background="new 15.167 -16.333 1000.637 1000.678" xml:space="preserve">
<path id="btn-tiaozheng-b.svg" d="M137.484,280.467v-116.31h116.309v116.31H137.484z M719.025,280.467v-116.31h174.461v116.31
	H719.025z M486.408,47.85c96.317,0,174.461,78.117,174.461,174.462c0,96.347-78.144,174.464-174.461,174.464
	c-96.347,0-174.462-78.117-174.462-174.464C311.946,125.967,390.061,47.85,486.408,47.85z M719.025,571.237
	c96.316,0,174.461,78.145,174.461,174.463c0,96.317-78.145,174.462-174.461,174.462c-96.318,0-174.463-78.145-174.463-174.462
	C544.562,649.381,622.707,571.237,719.025,571.237z M137.484,803.853V687.545h348.924v116.308H137.484z"/>
</svg>
