<?xml version="1.0" encoding="utf-8"?>
<!-- Generator: Adobe Illustrator 16.0.0, SVG Export Plug-In . SVG Version: 6.00 Build 0)  -->
<!DOCTYPE svg PUBLIC "-//W3C//DTD SVG 1.1//EN" "http://www.w3.org/Graphics/SVG/1.1/DTD/svg11.dtd">
<svg version="1.1" id="图形" xmlns="http://www.w3.org/2000/svg" xmlns:xlink="http://www.w3.org/1999/xlink" x="0px" y="0px"
	 width="1000.637px" height="1000.678px" viewBox="0 0 1000.637 1000.678" enable-background="new 0 0 1000.637 1000.678"
	 xml:space="preserve">
<g>
	<g>
		<g>
			<path d="M743.68,403.235H257.301c-26.838,0-48.638,21.755-48.638,48.638V743.7c0,26.885,21.8,48.639,48.638,48.639H743.68
				c26.885,0,48.639-21.754,48.639-48.639V451.873C792.318,424.99,770.564,403.235,743.68,403.235z M743.68,695.063
				c0,26.885-21.752,48.637-48.639,48.637H305.938c-26.838,0-48.638-21.752-48.638-48.637V500.511
				c0-26.884,21.8-48.639,48.638-48.639h389.103c26.887,0,48.639,21.755,48.639,48.639V695.063z"/>
		</g>
	</g>
	<g>
		<g>
			<g>
				<rect x="354.461" y="111.388" width="48.619" height="48.619"/>
				<rect x="208.605" y="111.388" width="48.619" height="48.619"/>
				<rect x="257.224" y="62.769" width="97.237" height="48.619"/>
				<path d="M840.652,160.007h-48.621v48.619H597.557v-48.619H403.081v48.619H208.605v-48.619h-48.619
					c-53.7,0-97.238,43.491-97.238,97.238v583.428c0,53.652,43.538,97.236,97.238,97.236h680.667
					c53.697,0,97.236-43.584,97.236-97.236V257.245C937.889,203.498,894.35,160.007,840.652,160.007z M889.27,840.673
					c0,26.871-21.746,48.617-48.617,48.617H159.986c-26.827,0-48.619-21.744-48.619-48.617V354.482
					c0-26.872,21.792-48.619,48.619-48.619h680.667c26.871,0,48.617,21.747,48.617,48.619V840.673L889.27,840.673z"/>
				<rect x="597.557" y="111.388" width="48.619" height="48.619"/>
				<rect x="743.41" y="111.388" width="48.621" height="48.619"/>
				<rect x="646.176" y="62.769" width="97.234" height="48.619"/>
			</g>
		</g>
	</g>
</g>
</svg>
