<?xml version="1.0" encoding="utf-8"?>
<!-- Generator: Adobe Illustrator 16.0.0, SVG Export Plug-In . SVG Version: 6.00 Build 0)  -->
<!DOCTYPE svg PUBLIC "-//W3C//DTD SVG 1.1//EN" "http://www.w3.org/Graphics/SVG/1.1/DTD/svg11.dtd">
<svg version="1.1" id="图形" xmlns="http://www.w3.org/2000/svg" xmlns:xlink="http://www.w3.org/1999/xlink" x="0px" y="0px"
	 width="1000.637px" height="1000.678px" viewBox="0 0 1000.637 1000.678" enable-background="new 0 0 1000.637 1000.678"
	 xml:space="preserve">
<path id="椭圆_6_拷贝_2" d="M515.485,45.91c241.945,0,438.095,196.148,438.095,438.096
	c0,241.944-196.148,438.094-438.095,438.094C273.538,922.1,77.39,725.95,77.39,484.007C77.39,242.059,273.539,45.91,515.485,45.91z"
	/>
<g transform="translate(-271 -159)">
	<path id="形状_1_拷贝_4" fill="#FFFFFF" d="M818.887,639.162l149.251-149.271c7.863-7.864,7.905-20.638,0.04-28.522
		c0,0,0-0.02-0.04-0.02l0,0c-7.862-7.884-20.615-7.905-28.481-0.041c0,0-0.04,0.021-0.04,0.041L790.326,610.62
		c-2.118,2.119-5.543,2.119-7.682,0.021c0-0.021,0-0.021,0-0.021l-148.7-148.701c-7.763-7.904-20.354-8.352-28.665-1.039
		c-8.128,7.641-8.536,20.415-0.896,28.542c0.144,0.164,0.286,0.306,0.449,0.469l149.271,149.271c2.118,2.099,2.118,5.5,0.041,7.62
		c-0.021,0-0.021,0.02-0.041,0.02L605.402,795.564c-7.904,7.74-8.354,20.373-0.999,28.686c7.62,8.107,20.373,8.474,28.48,0.896
		c0.163-0.163,0.326-0.327,0.469-0.487l149.291-149.292c2.118-2.12,5.563-2.12,7.683,0l0,0l149.29,149.292
		c7.862,7.901,20.617,7.901,28.481,0.039c0,0,0.04-0.039,0.08-0.039l0,0c7.823-7.825,7.865-20.618,0-28.482c0-0.041,0-0.041,0-0.041
		L818.887,646.802c-2.16-2.078-2.201-5.438-0.162-7.579C818.765,639.183,818.805,639.162,818.887,639.162z"/>
</g>
<g transform="translate(-271 -159)">
	<path id="形状_1_拷贝_4_1_" fill="none" stroke="#555555" d="M818.887,639.162l149.251-149.271
		c7.863-7.864,7.905-20.638,0.04-28.522c0,0,0-0.02-0.04-0.02l0,0c-7.862-7.884-20.615-7.905-28.481-0.041
		c0,0-0.04,0.021-0.04,0.041L790.326,610.62c-2.118,2.119-5.543,2.119-7.682,0.021c0-0.021,0-0.021,0-0.021l-148.7-148.701
		c-7.762-7.904-20.353-8.352-28.665-1.039c-8.128,7.641-8.536,20.415-0.896,28.542c0.143,0.164,0.286,0.306,0.449,0.469
		l149.271,149.271c2.119,2.099,2.119,5.5,0.041,7.62c-0.021,0-0.021,0.02-0.041,0.02L605.402,795.564
		c-7.904,7.74-8.353,20.373-0.999,28.686c7.62,8.107,20.373,8.474,28.481,0.896c0.163-0.163,0.326-0.327,0.469-0.487
		l149.292-149.292c2.117-2.12,5.563-2.12,7.682,0l0,0l149.29,149.292c7.862,7.901,20.617,7.901,28.481,0.039
		c0,0,0.04-0.039,0.08-0.039l0,0c7.823-7.825,7.865-20.618,0-28.482c0-0.041,0-0.041,0-0.041L818.887,646.802
		c-2.16-2.078-2.201-5.439-0.162-7.579C818.766,639.183,818.805,639.162,818.887,639.162z"/>
</g>
</svg>
