<?xml version="1.0" encoding="utf-8"?>
<!-- Generator: Adobe Illustrator 16.0.0, SVG Export Plug-In . SVG Version: 6.00 Build 0)  -->
<!DOCTYPE svg PUBLIC "-//W3C//DTD SVG 1.1//EN" "http://www.w3.org/Graphics/SVG/1.1/DTD/svg11.dtd">
<svg version="1.1" id="图形" xmlns="http://www.w3.org/2000/svg" xmlns:xlink="http://www.w3.org/1999/xlink" x="0px" y="0px"
	 width="1000.637px" height="1000.678px" viewBox="0 0 1000.637 1000.678" enable-background="new 0 0 1000.637 1000.678"
	 xml:space="preserve">
<g>
	<g>
		<path d="M809.61,191.076c-170.806-170.805-447.738-170.805-618.543-0.04c0,0,0,0.041-0.041,0.041
			C20.263,361.881,20.263,638.813,191.067,809.575c170.805,170.847,447.696,170.847,618.502,0
			C980.374,638.813,980.374,361.881,809.61,191.076z M500.338,896.058c-218.521,0-395.711-177.19-395.711-395.71
			c0-218.561,177.19-395.711,395.711-395.711c218.561,0,395.71,177.15,395.71,395.711
			C896.048,718.866,718.898,896.058,500.338,896.058z"/>
	</g>
</g>
<polygon points="382.517,647.632 353.025,618.183 618.119,353.046 647.611,382.579 "/>
<polygon points="353.025,382.579 382.517,353.046 647.611,618.183 618.119,647.632 "/>
</svg>
