<?xml version="1.0" encoding="utf-8"?>
<!-- Generator: Adobe Illustrator 16.0.0, SVG Export Plug-In . SVG Version: 6.00 Build 0)  -->
<!DOCTYPE svg PUBLIC "-//W3C//DTD SVG 1.1//EN" "http://www.w3.org/Graphics/SVG/1.1/DTD/svg11.dtd">
<svg version="1.1" id="图形" xmlns="http://www.w3.org/2000/svg" xmlns:xlink="http://www.w3.org/1999/xlink" x="0px" y="0px"
	 width="1000.637px" height="1000.678px" viewBox="0 0 1000.637 1000.678" enable-background="new 0 0 1000.637 1000.678"
	 xml:space="preserve">
<g>
	<g transform="scale(0.1953125, 0.1953125)">
		<path fill="#272636" d="M969.673,985.53h742.603l-324.269,323.592l979.102,977.462v78.38h-78.475l-978.898-977.498
			l-340.039,339.327V985.53H969.673z M3433.576,985.53h720.003v718.943l-328.754-328.277l-990.207,988.767h-78.475v-78.38
			l990.222-988.757l-312.809-312.309L3433.576,985.53z M2756.143,2753.423h78.475l979.152,977.673l339.809-339.534v741.503h-742.403
			l324.124-323.599l-979.157-977.712V2753.423L2756.143,2753.423z M2288.634,2753.423h78.475v78.55l-990.237,988.758
			l312.809,312.374H969.673v-718.973l328.754,328.079L2288.634,2753.423L2288.634,2753.423z M969.673,1923.34l340.064-339.499
			l782.253,781.123H969.673V1923.33V1923.34z M2091.99,2753.423l-793.563,792.638l-328.754-328.239v-464.399H2091.99z
			 M321.509,2570.578l509.164-508.434v441.784h1400.296l55.67,55.34l-55.67,55.35H830.673v464.174l-509.164-508.239V2570.578z
			 M3031.212,2364.964l793.613-792.208l328.754,328.014v464.194H3031.212z M4153.58,3195.232l-339.809,339.514l-782.558-781.323
			H4153.58V3195.232L4153.58,3195.232z M2836.808,2559.293l55.445-55.355h1400.527v-464.124l508.958,508.199l-508.958,508.409
			v-441.774H2892.253l-55.445-55.33V2559.293z M2756.143,3028.142l782.283,781.323l-323.869,323.599h-458.414V3028.142
			L2756.143,3028.142z M2506.109,2889.313l55.625-55.32l55.41,55.32v1382.552h458.209l-524.899,524.178L2025.5,4271.864h480.609
			V2889.313L2506.109,2889.313z M1573.516,3820.725l793.613-792.603v1104.942H1886.32l-312.829-312.339H1573.516z
			 M2756.143,2095.365l782.283-781.148L3214.557,990.6h-458.414V2095.365L2756.143,2095.365z M2506.109,2234.104l55.625,55.555
			l55.41-55.555V851.783h458.209l-524.899-524.369L2025.5,851.783h480.609V2234.104L2506.109,2234.104z M1573.516,1302.932
			l793.613,792.443V990.597H1886.32l-312.829,312.334H1573.516L1573.516,1302.932z"/>
	</g>
</g>
</svg>
