<?xml version="1.0" encoding="utf-8"?>
<!-- Generator: Adobe Illustrator 16.0.0, SVG Export Plug-In . SVG Version: 6.00 Build 0)  -->
<!DOCTYPE svg PUBLIC "-//W3C//DTD SVG 1.1//EN" "http://www.w3.org/Graphics/SVG/1.1/DTD/svg11.dtd">
<svg version="1.1" id="图形" xmlns="http://www.w3.org/2000/svg" xmlns:xlink="http://www.w3.org/1999/xlink" x="0px" y="0px"
	 width="1000.637px" height="1000.678px" viewBox="0 0 1000.637 1000.678" enable-background="new 0 0 1000.637 1000.678"
	 xml:space="preserve">
<path id="btn-guanlian-b.svg" d="M892.718,110.266l-3.425-3.485c-80.911-80.422-211.604-80.422-292.515,0L410.372,293.249
	c-80.484,80.912-80.484,211.604,0,292.577l3.424,3.425c6.605,6.604,13.639,12.721,21.099,18.347l68.252-68.251
	c-8.134-4.77-15.596-10.519-22.262-17.124l-3.546-3.424c-43.604-43.851-43.604-114.732,0-158.521L663.806,173.87
	c43.789-43.667,114.67-43.667,158.398,0l3.547,3.546c43.666,43.79,43.666,114.609,0,158.459l-84.581,84.213
	c14.494,35.96,21.649,74.428,20.979,113.143l130.569-130.389C973.202,321.992,973.202,191.239,892.718,110.266L892.718,110.266
	L892.718,110.266z M617.204,378.869c-6.604-6.604-13.698-12.783-21.158-18.347l-68.19,68.129
	c8.135,4.771,15.596,10.518,22.261,17.186l3.486,3.486c43.666,43.727,43.666,114.607,0,158.396l-186.47,186.407
	c-43.788,43.665-114.669,43.665-158.458,0l-3.424-3.426c-43.667-43.786-43.667-114.607,0-158.396l84.335-84.396
	c-14.494-35.962-21.649-74.369-20.977-113.143l-130.45,130.389c-80.36,80.972-80.36,211.728,0,292.698l3.487,3.424
	c80.911,80.361,211.604,80.361,292.576,0l186.408-186.53c80.482-80.849,80.482-211.604,0-292.576l-3.427-3.424l0,0L617.204,378.869
	L617.204,378.869z"/>
</svg>
