<?xml version="1.0" encoding="utf-8"?>
<!-- Generator: Adobe Illustrator 16.0.0, SVG Export Plug-In . SVG Version: 6.00 Build 0)  -->
<!DOCTYPE svg PUBLIC "-//W3C//DTD SVG 1.1//EN" "http://www.w3.org/Graphics/SVG/1.1/DTD/svg11.dtd">
<svg version="1.1" id="图形" xmlns="http://www.w3.org/2000/svg" xmlns:xlink="http://www.w3.org/1999/xlink" x="0px" y="0px"
	 width="1000.637px" height="1000.678px" viewBox="15.167 -16.333 1000.637 1000.678"
	 enable-background="new 15.167 -16.333 1000.637 1000.678" xml:space="preserve">
<path id="btn-shizhong-b.svg" d="M515.486,156.575c180.836,0,327.429,146.534,327.429,327.308
	c0,180.835-146.472,327.433-327.308,327.433c-180.806,0.119-327.399-146.474-327.431-327.31l0,0
	C188.39,303.291,334.801,156.82,515.486,156.575 M515.486,47.27c-241.217,0-436.737,195.458-436.737,436.736
	c0,241.155,195.521,436.735,436.737,436.735c241.215,0,436.735-195.58,436.735-436.735C952.221,242.729,756.701,47.27,515.486,47.27
	 M624.609,647.415c-14.502,0-28.395-5.727-38.63-16.084L476.917,522.27c-10.144-10.115-15.841-23.883-15.841-38.264l0,0V265.638
	c1.036-30.159,26.291-53.739,56.42-52.764c28.698,0.974,51.729,24.005,52.703,52.764v195.581l93.161,93.098
	c21.264,21.326,21.264,55.935-0.062,77.138c-10.236,10.234-24.128,15.961-38.569,15.961"/>
</svg>
