<?xml version="1.0" encoding="utf-8"?>
<!-- Generator: Adobe Illustrator 16.0.0, SVG Export Plug-In . SVG Version: 6.00 Build 0)  -->
<!DOCTYPE svg PUBLIC "-//W3C//DTD SVG 1.1//EN" "http://www.w3.org/Graphics/SVG/1.1/DTD/svg11.dtd">
<svg version="1.1" id="图形" xmlns="http://www.w3.org/2000/svg" xmlns:xlink="http://www.w3.org/1999/xlink" x="0px" y="0px"
	 width="1000.637px" height="1000.678px" viewBox="0 0 1000.637 1000.678" enable-background="new 0 0 1000.637 1000.678"
	 xml:space="preserve">
<path id="btn-guanbi.svg" d="M589.15,472.273l348.035-348.088c18.39-18.391,18.39-48.222,0-66.613l0,0
	c-18.338-18.391-48.116-18.391-66.507-0.054c0,0.054,0,0.054-0.056,0.054L522.59,405.5c-4.919,4.918-12.831,4.918-17.749,0
	c-0.054,0-0.054,0-0.105,0L158.09,58.963c-18.069-18.605-47.581-19.674-66.934-2.406c-18.925,17.856-19.833,47.634-1.978,66.667
	c0.321,0.321,0.642,0.641,0.962,0.962l347.875,348.088c4.865,4.918,4.865,12.883,0,17.802L91.263,836.828
	c-18.604,18.066-19.674,47.58-2.352,66.932c17.749,18.925,47.473,19.89,66.398,2.031c0.429-0.319,0.75-0.642,1.124-1.067
	L504.52,556.689c4.92-4.918,12.938-5.025,17.856-0.106v0.106l348.087,348.034c18.337,18.391,48.115,18.496,66.506,0.106
	c0,0,0.053,0,0.053-0.106l0,0c18.394-18.283,18.394-48.115,0-66.506L588.935,490.075
	C584.125,485.103,584.178,477.138,589.15,472.273z"/>
</svg>
