<?xml version="1.0" encoding="utf-8"?>
<!-- Generator: Adobe Illustrator 18.0.0, SVG Export Plug-In . SVG Version: 6.00 Build 0)  -->
<!DOCTYPE svg PUBLIC "-//W3C//DTD SVG 1.1//EN" "http://www.w3.org/Graphics/SVG/1.1/DTD/svg11.dtd">
<svg version="1.1" id="图形" xmlns="http://www.w3.org/2000/svg" xmlns:xlink="http://www.w3.org/1999/xlink" x="0px" y="0px"
	 viewBox="0 0 100 100" enable-background="new 0 0 100 100" xml:space="preserve">
<path id="形状_92.svg" fill="#CCCCCC" d="M77.295,17.238H22.692c-3.016,0-5.46,2.445-5.46,5.46s2.445,5.46,5.46,5.46h54.603
	c3.016,0,5.46-2.445,5.46-5.46S80.311,17.238,77.295,17.238z M93.676,18.429c0.532-6.135-4.011-11.539-10.146-12.071
	c-0.258-0.022-0.516-0.036-0.775-0.04H17.232c-5.605-0.426-10.494,3.772-10.921,9.377c-0.039,0.514-0.039,1.03,0,1.544v65.524
	c-0.426,5.605,3.772,10.494,9.377,10.921c0.514,0.039,1.03,0.039,1.544,0h65.524c5.605,0.426,10.494-3.772,10.921-9.377
	c0.039-0.514,0.039-1.03,0-1.544L93.676,18.429L93.676,18.429z M77.295,88.222H22.692c-6.031,0-10.921-4.889-10.921-10.921
	c0-6.031,4.889-10.921,10.921-10.921h54.603c6.031,0,10.921,4.889,10.921,10.921C88.216,83.333,83.327,88.222,77.295,88.222z
	 M77.295,60.921H22.692c-6.031,0-10.921-4.889-10.921-10.921S16.661,39.08,22.692,39.08h54.603c6.031,0,10.921,4.889,10.921,10.921
	S83.327,60.921,77.295,60.921z M77.295,33.619H22.692c-6.031,0-10.921-4.889-10.921-10.921s4.889-10.921,10.921-10.921h54.603
	c6.031,0,10.921,4.889,10.921,10.921S83.327,33.619,77.295,33.619z M77.295,44.54H22.692c-3.016,0-5.46,2.445-5.46,5.46
	s2.445,5.46,5.46,5.46h54.603c3.016,0,5.46-2.445,5.46-5.46C82.756,46.984,80.311,44.54,77.295,44.54z M77.295,71.841H22.692
	c-3.016,0-5.46,2.445-5.46,5.46s2.445,5.46,5.46,5.46h54.603c3.016,0,5.46-2.445,5.46-5.46S80.311,71.841,77.295,71.841z"/>
</svg>
