<?xml version="1.0" encoding="utf-8"?>
<!-- Generator: Adobe Illustrator 16.0.0, SVG Export Plug-In . SVG Version: 6.00 Build 0)  -->
<!DOCTYPE svg PUBLIC "-//W3C//DTD SVG 1.1//EN" "http://www.w3.org/Graphics/SVG/1.1/DTD/svg11.dtd">
<svg version="1.1" id="图形" xmlns="http://www.w3.org/2000/svg" xmlns:xlink="http://www.w3.org/1999/xlink" x="0px" y="0px"
	 width="1000.637px" height="1000.678px" viewBox="15.167 -16.333 1000.637 1000.678"
	 enable-background="new 15.167 -16.333 1000.637 1000.678" xml:space="preserve">
<path id="btn-shezhi-b.svg" d="M947.095,418.361v-5.643l-112.776-11.313c-7.562-30.04-20.005-58.645-36.717-84.749l70.506-87.431
	v-8.599c-25.615-34.248-56.052-64.683-90.207-90.452l-5.671-2.806l-87.402,73.436c-26.53-15.735-54.952-28.087-84.595-36.717
	L588.888,51.1h-5.612c-42.113-5.643-84.778-5.643-126.924,0h-5.671l-11.253,112.987c-30.007,7.563-58.583,19.944-84.626,36.717
	l-87.433-70.629c-1.524,1.526-3.537,2.531-5.671,2.805c-34.156,25.77-64.56,56.236-90.237,90.452l-2.837,5.673l64.895,84.747
	c-15.736,26.592-28.056,55.076-36.656,84.749L83.999,409.912v5.49c-2.805,28.299-5.611,48.031-5.611,67.824
	c0.701,21.774,2.592,43.486,5.611,64.956v5.732l113.047,11.345c7.533,30.129,19.915,58.796,36.656,84.779l-70.506,87.46l2.806,5.611
	c25.709,34.278,56.083,64.651,90.268,90.389l5.611,2.929l87.433-70.751c26.562,15.859,54.985,28.18,84.626,36.841l11.314,112.955
	h5.611c42.938,7.563,86.852,7.563,129.791,0h5.61l11.286-112.955c30.007-7.563,58.552-20.006,84.594-36.719l87.402,70.629
	l5.732-2.806c34.034-25.738,64.408-56.112,90.024-90.269l2.805-5.609l-70.506-87.462c15.736-26.714,27.935-55.258,36.473-85.022
	l112.835-11.224v-5.732c7.563-42.938,7.563-86.973,0-129.942l0,0H947.095z M515.576,604.904
	c-68.677,0.123-124.453-55.503-124.606-124.178c-0.122-68.646,55.441-124.454,124.118-124.576
	c68.678-0.154,124.425,55.41,124.548,124.088c0,0.091,0,0.151,0,0.244c0.486,68.188-54.407,123.934-122.564,124.422
	C516.583,604.904,516.063,604.904,515.576,604.904L515.576,604.904z"/>
</svg>
