<?xml version="1.0" encoding="utf-8"?>
<!-- Generator: Adobe Illustrator 16.0.0, SVG Export Plug-In . SVG Version: 6.00 Build 0)  -->
<!DOCTYPE svg PUBLIC "-//W3C//DTD SVG 1.1//EN" "http://www.w3.org/Graphics/SVG/1.1/DTD/svg11.dtd">
<svg version="1.1" id="图形" xmlns="http://www.w3.org/2000/svg" xmlns:xlink="http://www.w3.org/1999/xlink" x="0px" y="0px"
	 width="1000.637px" height="1000.678px" viewBox="15.167 -16.333 1000.637 1000.678"
	 enable-background="new 15.167 -16.333 1000.637 1000.678" xml:space="preserve">
<path id="btn-kongzhitai-b.svg" d="M433.261,641.713c-26.687,39.337-16.407,92.774,22.929,119.462
	c2.965,2.042,5.996,3.82,9.16,5.466c35.448,25.7,84.997,17.857,110.761-17.524c3.69-5.073,6.722-10.543,9.092-16.211
	c30.313-54.688,221.395-542.644,204.789-552.627c-16.669-9.982-326.489,406.482-356.731,461.171l0,0V641.713z M515.361,294.171
	c18.843,0,37.688,1.647,56.203,4.909c19.241-25.038,40.522-52.68,61.739-78.938c-38.215-11.563-78.015-17.428-117.942-17.395
	c-245.972,0-438.571,215.892-438.571,492.536c0,16.998,0.725,33.736,2.174,50.538c1.648,24.579,22.931,43.16,47.442,41.512
	c0.132,0,0.132,0,0.132,0c24.643-2.899,42.302-25.04,39.798-49.614c-1.186-13.84-1.779-28.139-1.779-42.369
	c0-224.688,154.184-400.783,350.87-400.783l0,0L515.361,294.171z M832.163,351.299c-12.257,34.296-25.303,69.252-36.636,99.462
	c47.111,72.613,71.756,157.611,70.833,244.192c0,14.497-0.594,29.061-1.844,43.224c-2.57,24.645,15.155,46.782,39.731,49.684
	c1.319,0.065,2.636,0.065,4.021,0c23.129-0.461,42.039-18.516,43.686-41.578c1.447-16.933,2.174-34.263,2.174-51.527
	c1.778-125.455-41.512-247.386-121.965-343.653l0,0V351.299z"/>
</svg>
