<?xml version="1.0" encoding="utf-8"?>
<!-- Generator: Adobe Illustrator 16.0.0, SVG Export Plug-In . SVG Version: 6.00 Build 0)  -->
<!DOCTYPE svg PUBLIC "-//W3C//DTD SVG 1.1//EN" "http://www.w3.org/Graphics/SVG/1.1/DTD/svg11.dtd">
<svg version="1.1" id="图形" xmlns="http://www.w3.org/2000/svg" xmlns:xlink="http://www.w3.org/1999/xlink" x="0px" y="0px"
	 width="1000.637px" height="1000.678px" viewBox="0 0 1000.637 1000.678" enable-background="new 0 0 1000.637 1000.678"
	 xml:space="preserve">
<path id="_10.svg" d="M500.317,62.807c-4.912,0-9.806,0.078-14.662,0.233C254.458,70.81,69.253,257.18,62.941,488.394
	c-0.155,3.981-0.155,7.943-0.155,11.944c0,241.645,195.887,437.532,437.532,437.532l0,0c7.828,0,15.576-0.195,23.286-0.621
	c227.815-12.119,408.07-197.246,414.109-425.336c0-3.846,0.137-7.73,0.137-11.575C937.85,258.694,741.961,62.807,500.317,62.807
	L500.317,62.807z M892.984,509.507c-1.048,17.051-10.953,32.277-26.063,40.162c-149.118,76.719-318.397,105.189-484.416,81.533
	c-21.032-3.146-37.656-19.459-41.174-40.477c-6.72-40.861-9.69-82.307-8.875-123.714c1.63-122.124,37.368-241.334,103.187-344.191
	c8.256-12.663,21.888-20.84,36.961-22.141c11.42-1.01,22.937-1.514,34.569-1.514c213.464,0,386.491,173.007,386.53,386.452
	C893.703,493.658,893.449,501.62,892.984,509.507z M699.466,489.152c0,3.807-0.136,7.614-0.351,11.381
	c-0.502,8.101-5.204,15.345-12.408,19.111c-71.023,36.512-151.645,50.068-230.691,38.768c-10.021-1.479-17.944-9.244-19.614-19.229
	c-3.188-19.5-4.605-39.212-4.216-58.925c0.757-58.149,17.771-114.899,49.116-163.88c3.925-6.021,10.411-9.925,17.596-10.565
	c5.439-0.466,10.915-0.699,16.451-0.699c101.652-0.039,184.077,82.348,184.116,183.98
	C699.466,489.112,699.466,489.133,699.466,489.152z"/>
</svg>
