<?xml version="1.0" encoding="utf-8"?>
<!-- Generator: Adobe Illustrator 16.0.0, SVG Export Plug-In . SVG Version: 6.00 Build 0)  -->
<!DOCTYPE svg PUBLIC "-//W3C//DTD SVG 1.1//EN" "http://www.w3.org/Graphics/SVG/1.1/DTD/svg11.dtd">
<svg version="1.1" id="图形" xmlns="http://www.w3.org/2000/svg" xmlns:xlink="http://www.w3.org/1999/xlink" x="0px" y="0px"
	 width="1000.637px" height="1000.678px" viewBox="15.167 -16.333 1000.637 1000.678"
	 enable-background="new 15.167 -16.333 1000.637 1000.678" xml:space="preserve">
<g>
	<g>
		<path d="M514.663,46.481c-241.996,0-438.178,196.182-438.178,438.178c0,242.024,196.182,438.179,438.178,438.179
			c242.025,0,438.179-196.154,438.179-438.179C952.841,242.663,756.688,46.481,514.663,46.481z M514.663,864.414
			c-209.731,0-379.754-170.023-379.754-379.755c0-209.732,170.022-379.755,379.754-379.755
			c209.733,0,379.755,170.023,379.755,379.755C894.417,694.391,724.396,864.414,514.663,864.414z"/>
	</g>
</g>
<g>
	<g>
		<path d="M514.663,163.328c-177.468,0-321.33,143.863-321.33,321.332c0,177.439,143.862,321.331,321.33,321.331
			c177.44,0,321.332-143.892,321.332-321.331C835.995,307.191,692.103,163.328,514.663,163.328z M660.324,491.906v44.445H558.481
			v61.961h101.843v44.73H558.481v89.005h-55.515v-89.005H397.815v-44.73h105.151v-61.961H397.815v-44.445h88.521L378.188,290.161
			h63.616l75.597,157.213c4.166,8.787,8.929,19.884,14.264,33.377h1.112c4.25-11.867,9.186-23.478,14.863-34.774l75.882-155.815
			h59.623L573.601,491.906H660.324z"/>
	</g>
</g>
</svg>
