<?xml version="1.0" encoding="utf-8"?>
<!-- Generator: Adobe Illustrator 16.0.0, SVG Export Plug-In . SVG Version: 6.00 Build 0)  -->
<!DOCTYPE svg PUBLIC "-//W3C//DTD SVG 1.1//EN" "http://www.w3.org/Graphics/SVG/1.1/DTD/svg11.dtd">
<svg version="1.1" id="图形" xmlns="http://www.w3.org/2000/svg" xmlns:xlink="http://www.w3.org/1999/xlink" x="0px" y="0px"
	 width="1000.637px" height="1000.678px" viewBox="0 0 1000.637 1000.678" enable-background="new 0 0 1000.637 1000.678"
	 xml:space="preserve">
<g>
	<path fill="none" d="M467.631,524.17v-10.149H109.126V891.39h377.367V533.17h-9.862C471.66,533.17,467.631,529.141,467.631,524.17z
		"/>
	<path fill="none" d="M514.146,467.508h9.859c4.971,0,9,4.029,9,9v10.15h358.508V109.29H514.146V467.508z"/>
	<path d="M929.028,62.775H476.631c-4.971,0-9,4.029-9,9V95.98H101.126v371.527H71.609c-4.971,0-9,4.029-9,9v452.395
		c0,4.971,4.029,9,9,9h452.396c4.971,0,9-4.029,9-9V533.17h396.021c4.971,0,9-4.029,9-9V71.775
		C938.028,66.805,933.999,62.775,929.028,62.775z M486.493,891.39H109.126V514.021h358.505v10.149c0,4.971,4.029,9,9,9h9.862V891.39
		z M891.514,486.658H533.006v-10.15c0-4.971-4.029-9-9-9h-9.859V109.29h377.367V486.658z"/>
</g>
</svg>
