<?xml version="1.0" encoding="utf-8"?>
<!-- Generator: Adobe Illustrator 18.0.0, SVG Export Plug-In . SVG Version: 6.00 Build 0)  -->
<!DOCTYPE svg PUBLIC "-//W3C//DTD SVG 1.1//EN" "http://www.w3.org/Graphics/SVG/1.1/DTD/svg11.dtd">
<svg version="1.1" id="图形" xmlns="http://www.w3.org/2000/svg" xmlns:xlink="http://www.w3.org/1999/xlink" x="0px" y="0px"
	 viewBox="0 0 100 100" enable-background="new 0 0 100 100" xml:space="preserve">
<path id="数据管理1.svg" fill="#CCCCCC" d="M50,93.689c-19.606,0-35.498-4.888-35.498-10.922V55.461
	c0,6.035,15.892,10.922,35.498,10.922s35.498-4.888,35.498-10.922v27.306C85.498,88.802,69.606,93.689,50,93.689z M50,60.922
	c-19.606,0-35.498-4.888-35.498-10.922V22.694c0,6.035,15.892,10.922,35.498,10.922s35.498-4.888,35.498-10.922V50
	C85.498,56.035,69.606,60.922,50,60.922z M50,28.155c-19.606,0-35.498-4.888-35.498-10.922S30.394,6.311,50,6.311
	s35.498,4.888,35.498,10.922S69.606,28.155,50,28.155z"/>
</svg>
