<?xml version="1.0" encoding="utf-8"?>
<!-- Generator: Adobe Illustrator 16.0.0, SVG Export Plug-In . SVG Version: 6.00 Build 0)  -->
<!DOCTYPE svg PUBLIC "-//W3C//DTD SVG 1.1//EN" "http://www.w3.org/Graphics/SVG/1.1/DTD/svg11.dtd">
<svg version="1.1" id="图形" xmlns="http://www.w3.org/2000/svg" xmlns:xlink="http://www.w3.org/1999/xlink" x="0px" y="0px"
	 width="1000.637px" height="1000.678px" viewBox="0 0 1000.637 1000.678" enable-background="new 0 0 1000.637 1000.678"
	 xml:space="preserve">
<path id="_7.svg" d="M764.434,437.604c-0.636,19.075-5.342,37.752-13.788,54.865l-12.393,6.322
	c-9.664,20.456,1.364,12.644-6.194,28.812c-17.586,17.913-36.988,33.938-57.898,47.816c-7.595-0.727,4.813-9.156,6.885-12.644
	c-21.364,14.751-17.223,22.49-49.614,30.92l-0.69-2.106c-79.991,38.66-190.885-37.207-189.522-140.617
	c0.31,2.999-1.361,5.851-4.124,7.049c-4.649-53.304,23.765-104.063,71.672-127.953c44.036-22.945,97.723-15.896,134.384,17.604
	c-22.709-31.139-59.334-49.034-97.851-47.817c-39.75,0.818-76.013,22.819-95.105,57.664c-21.383,14.062-24.182,53.448-33.773,61.151
	c-12.426,94.871,24.199,136.365,86.15,184.909c9.646,6.322,2.743,7.702,4.124,12.644c-21.129-10.354-39.896-24.961-55.12-42.875
	c7.722,12.754,17.495,24.163,28.923,33.72c-19.983-7.014-45.491-47.816-53.049-49.889c33.063,61.151,135.802,107.517,188.813,84.37
	c-28.396,2.071-56.918-1.271-84.062-9.847c-11.718-6.358-27.578-19.003-24.815-21.11c70.979,30.122,152.823,18.203,212.268-30.922
	c12.102-12.317,24.999-23.799,38.571-34.444c-7.56,11.154,1.381,5.56-4.813,15.442c16.548-26.017-6.904-10.538,16.548-44.983
	l8.959,11.954c-3.437-21.801,26.888-48.506,23.417-82.952c6.903-10.536,7.574,11.265,0.688,35.846
	c10.356-27.416,2.78-31.631,5.579-54.122c3.18,7.812,5.939,15.806,8.283,23.891c-6.903-26.688,6.194-44.275,9.63-59.735
	c-3.436-1.399-10.34,11.936-11.72-18.985c0.709-13.335,4.162-7.013,4.852-10.537c-7.084-8.939-11.59-19.621-13.025-30.939
	c2.762-4.923,7.575,11.936,11.7,12.663c-2.073-16.169-6.887-28.124-6.887-40.077c-11.719-25.308-4.124,3.524-13.79-10.556
	c-13.024-40.059,10.34-9.829,11.721-27.415c16.313,27.979,28.157,58.354,35.152,89.965c-3.959-21.983-9.738-43.602-17.241-64.64
	c5.596,2.798-9.646-44.982,7.576-13.371c-22.362-68.346-69.58-125.81-132.332-160.964c5.995,3.343,10.446,8.884,12.408,15.442
	c-27.561-16.859-22.729-18.276-26.18-24.599c-22.056-9.12-23.437,0.69-38.587,0c-27.852-14.498-57.174-26.052-87.439-34.445
	l1.381,8.448c-27.562-9.865-31.631,3.506-62.042,0c5.522-4.342,12.28-6.813,19.313-7.03c-26.889,3.524-25.508-4.942-51.705,1.38
	c6.449-4.342,13.135-8.321,20.039-11.918c-21.365,1.399-51.705,13.371-42.784,2.816c-35.153,16.169-97.867,38.66-133.693,72.397
	l-0.69-7.739c-16.533,19.694-70.963,59.771-75.123,85.06l-4.124,1.417c-8.157,14.625-15.079,29.904-20.692,45.691
	c-11.01,18.985-16.532,7.03-14.443,10.555c-17.495,36.335-31.574,74.214-42.039,113.146c6.867,9.883,0,61.188,2.743,101.248
	C147.83,688.495,296.695,883.324,459.33,928.306c29.285,7.194,59.443,10.283,89.583,9.156
	c-35.844-10.536-39.968-5.595-75.122-17.586c-24.816-12.644-30.321-26.052-48.234-41.458l7.576,12.645
	c-35.137-12.645-20.675-16.169-48.926-24.599l7.594-10.573c-14.915-5.269-27.396-15.732-35.152-29.504l-11.719,0.69
	c-11.937-11.409-19.693-26.524-22.036-42.875l-4.16,7.737c-4.815-7.737-54.431-70.308-28.923-55.52
	c-7.667-5.159-13.844-12.208-17.932-20.456l5.577-6.359c-10.954-12.753-18.748-27.939-22.745-44.291
	c3.688,5.923,9.283,10.392,15.842,12.681c-30.994-79.428-33.083-4.215-56.501-80.846l4.814-0.727
	c-3.633-6.104-6.849-12.427-9.647-18.967l2.762-21.764c-22.745-26.743-6.886-113.892-3.451-161.691
	c2.071-18.984,19.312-40.077,31.629-72.396l-7.594-1.399c14.498-26.052,84.098-105.444,116.472-101.265
	c15.17-19.658-3.434,0-6.213-4.906c34.464-36.553,44.801-26.052,68.235-32.337c24.816-14.752-21.364,5.595-9.646-5.56
	c42.784-11.264,30.321-25.325,86.84-30.957c5.578,2.815-13.807,4.941-18.604,9.156c35.827-17.586,113.02-13.354,164.017,10.555
	c58.57,27.415,124.047,110.367,126.81,187.669l2.762,0.709c-1.381,30.92,4.813,66.783-6.216,99.811l7.597-15.46l0,0L764.434,437.604
	z"/>
</svg>
