<?xml version="1.0" encoding="utf-8"?>
<!-- Generator: Adobe Illustrator 16.0.0, SVG Export Plug-In . SVG Version: 6.00 Build 0)  -->
<!DOCTYPE svg PUBLIC "-//W3C//DTD SVG 1.1//EN" "http://www.w3.org/Graphics/SVG/1.1/DTD/svg11.dtd">
<svg version="1.1" id="图形" xmlns="http://www.w3.org/2000/svg" xmlns:xlink="http://www.w3.org/1999/xlink" x="0px" y="0px"
	 width="1000.637px" height="1000.678px" viewBox="0 0 1000.637 1000.678" enable-background="new 0 0 1000.637 1000.678"
	 xml:space="preserve">
<path id="btn-delete-btn.svg" d="M717.79,171.994c37.7,5.857,76.938-1.648,107.702,3.924c49.813,9.098,75.063,54.42,69.832,121.124
	h-60.278c-1.705,118.281-0.967,235.424-0.967,354.158c0,59.938,4.663,122.942-0.909,176.625
	c-3.355,45.381-37.645,82.456-82.626,89.278c-47.881,4.438-95.988,5.12-143.87,2.05c-97.07,0-195.391,1.934-290.529,0
	c-39.407,2.273-77.335-15.127-101.163-46.632c-18.084-40.373-24.509-85.07-18.597-128.971v-446.51h-57.547
	c-13.932-48.848,10.804-100.368,57.547-120.101c38.215-5.8,76.998-7.506,115.61-4.947c-3.47-66.021,0-116.46,52.942-123
	c28.09-1.592,56.297-1.592,84.501,0h168.834c27.75-4.89,56.297-0.853,81.547,11.601c18.14,34.006,24.339,73.129,17.456,111.116l0,0
	L717.79,171.994z M369.77,114.503v59.482h290.47v-62.496H370.621C369.599,111.489,369.655,113.024,369.77,114.503L369.77,114.503z
	 M313.074,303.979v378.042c0,32.188-6.938,101.107,11.145,114.982c10.692,6.027,23.658,6.027,34.349,0
	c18.765-13.875,12.111-80.636,12.111-114.073V300.967h-56.638C312.961,300.967,313.074,302.558,313.074,303.979L313.074,303.979
	L313.074,303.979z M485.719,303.979v365.988c-4.095,39.123-2.501,78.477,4.662,117.145c9.896,14.102,29.06,17.971,43.673,8.871
	c16.436-13.647,9.327-86.097,9.327-116.12V300.967h-56.696C485.605,300.967,485.719,302.558,485.719,303.979L485.719,303.979
	L485.719,303.979z M660.467,303.979v382.934c0,39.237-7.165,99.399,16.719,110.092c11.032,3.753,23.145,2.615,33.438-2.956
	c11.032-37.646,13.876-77.224,8.304-116.006V300.967h-57.548C660.239,300.967,660.355,302.558,660.467,303.979L660.467,303.979
	L660.467,303.979z"/>
</svg>
