<?xml version="1.0" encoding="utf-8"?>
<!-- Generator: Adobe Illustrator 16.0.0, SVG Export Plug-In . SVG Version: 6.00 Build 0)  -->
<!DOCTYPE svg PUBLIC "-//W3C//DTD SVG 1.1//EN" "http://www.w3.org/Graphics/SVG/1.1/DTD/svg11.dtd">
<svg version="1.1" id="图形" xmlns="http://www.w3.org/2000/svg" xmlns:xlink="http://www.w3.org/1999/xlink" x="0px" y="0px"
	 width="1000.637px" height="1000.678px" viewBox="0 0 1000.637 1000.678" enable-background="new 0 0 1000.637 1000.678"
	 xml:space="preserve">
<path id="qian.svg" d="M268.679,62.797h463.279c113.71,0,205.902,92.195,205.902,205.901v463.279
	c0,113.709-92.192,205.902-205.902,205.902H268.679c-113.71,0-205.902-92.193-205.902-205.902V268.699
	C62.776,154.993,154.969,62.797,268.679,62.797z M522.99,755.507c37.955-4.123,73.543-20.209,101.745-45.844
	c47.052-47.455,50.421-122.861,7.689-174.234c-30.914-31.568-68.216-56.25-109.436-72.337V268.699
	c37.65-0.099,74.347,11.563,104.911,33.379V233.11c-32.575-15.986-68.667-23.426-104.911-21.818v-67.159H481.87v68.567
	c-37.4,4.072-72.087,21.365-97.825,48.759c-24.63,25.639-38.252,59.972-37.851,95.514c-0.654,29.256,8.193,57.91,25.336,81.637
	c30.663,32.773,68.314,58.108,110.139,74.296v188.207c-48.258-0.299-95.01-16.59-133.013-46.352v70.684
	c40.315,23.424,86.463,34.887,133.013,33.178v79.424h41.221v-82.643L522.99,755.507z M481.871,441.526
	c-20.462-9.954-38.56-24.13-53.188-41.521c-10.102-14.88-15.179-32.676-14.426-50.671c-2.109-40.017,27.697-74.602,67.612-78.419
	L481.871,441.526L481.871,441.526z M522.99,533.015c38.858,13.674,66.507,48.156,71.482,89.078
	c0.353,40.416-31.114,73.996-71.482,76.41V533.015z"/>
</svg>
