<?xml version="1.0" encoding="utf-8"?>
<!-- Generator: Adobe Illustrator 16.0.0, SVG Export Plug-In . SVG Version: 6.00 Build 0)  -->
<!DOCTYPE svg PUBLIC "-//W3C//DTD SVG 1.1//EN" "http://www.w3.org/Graphics/SVG/1.1/DTD/svg11.dtd">
<svg version="1.1" id="图形" xmlns="http://www.w3.org/2000/svg" xmlns:xlink="http://www.w3.org/1999/xlink" x="0px" y="0px"
	 width="1000.637px" height="1000.678px" viewBox="15.167 -16.333 1000.637 1000.678"
	 enable-background="new 15.167 -16.333 1000.637 1000.678" xml:space="preserve">
<g>
	<path id="圆角矩形_2" fill="#88D5F8" d="M177.67,361.283H853.3c23.313,0,42.226,18.9,42.226,42.228v474.611
		c0,23.313-18.913,42.228-42.226,42.228H177.67c-23.319,0-42.227-18.915-42.227-42.228V403.511
		C135.444,380.184,154.351,361.283,177.67,361.283z"/>
	<path id="形状_1_拷贝" fill="#C6F2FF" d="M887.083,369.627L515.481,47.661L143.886,369.627H887.083z"/>
	<path id="形状_1" d="M143.886,361.153l371.595,321.974l371.603-321.974H143.886z"/>
	<path id="剪切萌版" fill="#C6F2FF" d="M785.737,369.627V166.274H245.226v203.354H785.737L785.737,369.627z M143.886,361.18
		l371.595,321.946l371.603-321.974H143.886V361.18z"/>
	<path id="形状_6" fill="#FFFFFF" stroke="#EFEFEF" stroke-miterlimit="10" d="M245.229,166.274h540.51v516.853h-540.51V166.274z"
		/>
	<path id="形状_5" fill="#7ACEF4" d="M515.484,683.126L152.336,911.909h726.297L515.484,683.126z"/>
	<g>
		<g>
			<path fill="#C9E9FF" d="M515.481,234.39c-88.666,0-160.542,71.876-160.542,160.543s71.876,160.551,160.542,160.551
				c88.66,0,160.55-71.884,160.55-160.551S604.141,234.39,515.481,234.39z M624.116,332.823c-0.233,2.528-1.32,4.907-3.065,6.756
				L493.47,480.583c-3.457,3.993-9.492,4.419-13.485,0.962c-0.336-0.295-0.659-0.618-0.955-0.962l-69.127-76.681
				c-4.323-4.605-4.096-11.835,0.509-16.158c1.842-1.726,4.199-2.798,6.715-3.045c2.762,0.027,5.388,1.224,7.216,3.3l54.687,60.762
				c3.458,3.986,9.492,4.413,13.478,0.962c0.344-0.302,0.667-0.617,0.962-0.962l113.148-125.093
				c1.828-2.068,4.453-3.265,7.202-3.291C620.116,320.975,624.707,326.548,624.116,332.823z"/>
		</g>
	</g>
</g>
</svg>
