<?xml version="1.0" encoding="utf-8"?>
<!-- Generator: Adobe Illustrator 16.0.0, SVG Export Plug-In . SVG Version: 6.00 Build 0)  -->
<!DOCTYPE svg PUBLIC "-//W3C//DTD SVG 1.1//EN" "http://www.w3.org/Graphics/SVG/1.1/DTD/svg11.dtd">
<svg version="1.1" id="图形" xmlns="http://www.w3.org/2000/svg" xmlns:xlink="http://www.w3.org/1999/xlink" x="0px" y="0px"
	 width="1000.637px" height="1000.678px" viewBox="0 0 1000.637 1000.678" enable-background="new 0 0 1000.637 1000.678"
	 xml:space="preserve">
<path id="双排.svg" d="M450.208,891.712L450.208,891.712c0.143-11.731,5.014-22.983,13.573-31.022l334.116-329.34
	c17.117-16.646,17.448-44.077,0.756-61.196c-0.236-0.282-0.474-0.474-0.756-0.757L463.781,140.155
	c-8.748-8.323-13.666-20.054-13.573-31.969l0,0c0.757-24.971,21.614-44.453,46.534-43.696c11.209,0.375,21.943,4.724,29.983,12.672
	l398.054,392.234c17.12,16.745,17.449,44.169,0.757,61.196c-0.236,0.283-0.474,0.566-0.757,0.757L526.727,923.676
	c-18.064,17.218-46.676,16.648-63.938-1.416C454.845,914.029,450.398,903.062,450.208,891.712z M62.797,891.712L62.797,891.712
	c0.191-11.731,5.014-22.983,13.621-31.022l334.065-329.34c17.12-16.646,17.402-44.077,0.756-61.196
	c-0.188-0.282-0.471-0.474-0.756-0.757L76.418,140.155c-8.798-8.323-13.717-20.054-13.621-31.969l0,0
	c0.758-24.971,21.565-44.453,46.536-43.696c11.16,0.375,21.94,4.724,29.983,12.672l398.053,392.234
	c17.117,16.745,17.448,44.169,0.757,61.196c-0.236,0.283-0.475,0.566-0.757,0.757L139.316,923.676
	c-18.065,17.218-46.632,16.648-63.939-1.416C67.434,914.029,62.988,903.062,62.797,891.712z"/>
</svg>
