<?xml version="1.0" encoding="utf-8"?>
<!-- Generator: Adobe Illustrator 16.0.0, SVG Export Plug-In . SVG Version: 6.00 Build 0)  -->
<!DOCTYPE svg PUBLIC "-//W3C//DTD SVG 1.1//EN" "http://www.w3.org/Graphics/SVG/1.1/DTD/svg11.dtd">
<svg version="1.1" id="图形" xmlns="http://www.w3.org/2000/svg" xmlns:xlink="http://www.w3.org/1999/xlink" x="0px" y="0px"
	 width="1000.637px" height="1000.678px" viewBox="0 0 1000.637 1000.678" enable-background="new 0 0 1000.637 1000.678"
	 xml:space="preserve">
<path id="双排.svg" d="M550.43,108.966L550.43,108.966c-0.143,11.731-5.013,22.983-13.573,31.022L202.739,469.328
	c-17.117,16.647-17.448,44.077-0.756,61.197c0.237,0.283,0.474,0.475,0.756,0.757l334.117,329.241
	c8.748,8.323,13.666,20.055,13.573,31.969l0,0c-0.756,24.972-21.614,44.453-46.534,43.696c-11.209-0.375-21.944-4.724-29.984-12.672
	L75.857,531.281c-17.12-16.745-17.449-44.168-0.757-61.196c0.237-0.283,0.474-0.567,0.757-0.758L473.911,77.002
	c18.064-17.218,46.677-16.649,63.939,1.416C545.794,86.648,550.238,97.616,550.43,108.966z M937.841,108.966L937.841,108.966
	c-0.191,11.731-5.015,22.983-13.621,31.022L590.153,469.328c-17.12,16.647-17.401,44.077-0.756,61.197
	c0.188,0.283,0.471,0.475,0.756,0.757l334.065,329.241c8.798,8.323,13.717,20.055,13.621,31.969l0,0
	c-0.759,24.972-21.565,44.453-46.536,43.696c-11.16-0.375-21.94-4.724-29.983-12.672L463.268,531.281
	c-17.117-16.745-17.449-44.168-0.756-61.196c0.235-0.283,0.474-0.567,0.756-0.758L861.32,77.002
	c18.065-17.218,46.632-16.649,63.939,1.416C933.204,86.648,937.648,97.616,937.841,108.966z"/>
</svg>
