<?xml version="1.0" encoding="utf-8"?>
<!-- Generator: Adobe Illustrator 16.0.0, SVG Export Plug-In . SVG Version: 6.00 Build 0)  -->
<!DOCTYPE svg PUBLIC "-//W3C//DTD SVG 1.1//EN" "http://www.w3.org/Graphics/SVG/1.1/DTD/svg11.dtd">
<svg version="1.1" id="图形" xmlns="http://www.w3.org/2000/svg" xmlns:xlink="http://www.w3.org/1999/xlink" x="0px" y="0px"
	 width="1000.637px" height="1000.678px" viewBox="15.167 -16.333 1000.637 1000.678"
	 enable-background="new 15.167 -16.333 1000.637 1000.678" xml:space="preserve">
<g>
	<g>
		<g>
			<path d="M788.621,211.08H567.817c-25.019-9.07-44.384-29.234-52.332-54.627c0.827-4.749,0.934-9.551,0.32-14.297
				c-3.389-25.714-26.94-43.745-52.6-40.332H133.096c-30.167,0-54.627,24.433-54.627,54.629v655.524l109.254-437.016
				c0-30.196,24.46-54.627,54.627-54.627h600.896v-54.627C843.247,235.511,818.812,211.08,788.621,211.08z"/>
			<polygon points="843.247,811.978 897.875,593.467 843.247,757.35 			"/>
			<path d="M945.525,402.865l6.976-27.903c0-30.196-24.435-54.627-54.626-54.627h-54.628v54.627h54.628
				C918.353,374.962,936.172,386.209,945.525,402.865z"/>
			<path d="M945.525,402.865l-47.65,190.603L952.5,429.588C952.5,419.874,949.96,410.764,945.525,402.865z"/>
			<path d="M296.977,374.962c-30.168,0-54.627,24.431-54.627,54.626L133.096,757.35c0,30.193,24.46,54.628,54.627,54.628h600.897
				c30.191,0,54.626-24.435,54.626-54.628V374.962H296.977z"/>
		</g>
	</g>
</g>
</svg>
