<?xml version="1.0" encoding="utf-8"?>
<!-- Generator: Adobe Illustrator 18.0.0, SVG Export Plug-In . SVG Version: 6.00 Build 0)  -->
<!DOCTYPE svg PUBLIC "-//W3C//DTD SVG 1.1//EN" "http://www.w3.org/Graphics/SVG/1.1/DTD/svg11.dtd">
<svg version="1.1" id="图形" xmlns="http://www.w3.org/2000/svg" xmlns:xlink="http://www.w3.org/1999/xlink" x="0px" y="0px"
	 viewBox="0 0 100 100" enable-background="new 0 0 100 100" xml:space="preserve">
<g>
	<g>
		<g>
			<path fill="#CCCCCC" d="M75.717,37.142H24.283c-5.681,0-10.287,4.605-10.287,10.287v36.003c0,5.681,4.605,10.287,10.287,10.287
				h51.434c5.681,0,10.287-4.605,10.287-10.287V47.428C86.003,41.747,81.398,37.142,75.717,37.142z M58.909,67.95
				c-0.903,1.564-2.202,2.862-3.765,3.765v11.717H44.857V71.715c-4.92-2.841-6.606-9.132-3.765-14.052
				c2.841-4.92,9.132-6.606,14.052-3.765C60.063,56.739,61.749,63.03,58.909,67.95z"/>
		</g>
	</g>
	<g>
		<g>
			<path fill="#CCCCCC" d="M50,6.281c-14.203,0-25.717,11.514-25.717,25.717c0,14.201,11.511,15.43,25.717,15.43
				s25.717-1.229,25.717-15.43C75.717,17.795,64.203,6.281,50,6.281z M50,42.285c-11.362,0-20.573,1.075-20.573-10.287
				c0-11.362,9.211-20.573,20.573-20.573s20.573,9.211,20.573,20.573C70.573,43.36,61.362,42.285,50,42.285z"/>
		</g>
	</g>
</g>
</svg>
