<?xml version="1.0" encoding="utf-8"?>
<!-- Generator: Adobe Illustrator 16.0.0, SVG Export Plug-In . SVG Version: 6.00 Build 0)  -->
<!DOCTYPE svg PUBLIC "-//W3C//DTD SVG 1.1//EN" "http://www.w3.org/Graphics/SVG/1.1/DTD/svg11.dtd">
<svg version="1.1" id="图形" xmlns="http://www.w3.org/2000/svg" xmlns:xlink="http://www.w3.org/1999/xlink" x="0px" y="0px"
	 width="1000.637px" height="1000.678px" viewBox="0 0 1000.637 1000.678" enable-background="new 0 0 1000.637 1000.678"
	 xml:space="preserve">
<path id="_9.svg" d="M126.487,634.503c-63.336-215.707,59.142-442.114,274.324-507.15c91.423-27.25,189.564-20.908,276.715,17.907
	c-4.409,6.303-8.489,12.684-12.26,19.054c-41.174-9.73-72.717,3.399-80.601,39.272c-12.393,56.394,38.281,147.776,113.076,203.947
	c74.815,56.149,145.514,55.995,157.887-0.369c3.011-16.325,2.232-33.106-2.234-49.081c8.78-5.399,17.308-11.236,25.503-17.499
	c98.335,204.401,12.354,449.803-192.05,548.18c-18.723,8.974-38.107,16.549-57.977,22.646
	c-214.347,62.735-438.969-60.172-501.724-274.52c-0.232-0.796-0.465-1.61-0.699-2.428l0,0L126.487,634.503z M649.554,232.427
	c0.331-0.32,0.623-0.612,0.935-0.971c97.131-101.017,218.134-160.847,270.05-133.54c51.936,27.308-22.743,160.342-81.864,232.565
	c-17.599,18.286-36.243,35.514-55.86,51.586C715.882,358.024,665.713,301.679,649.554,232.427L649.554,232.427z M63.539,145.192
	c-9.226-72.369,51.703-94.064,135.938-48.401c20.608,11.313,39.992,24.725,57.841,40.01c-51.877,36.223-94.568,84.1-124.634,139.784
	C97.684,240.207,73.696,194.651,63.539,145.192L63.539,145.192L63.539,145.192z"/>
</svg>
