<?xml version="1.0" encoding="utf-8"?>
<!-- Generator: Adobe Illustrator 16.0.0, SVG Export Plug-In . SVG Version: 6.00 Build 0)  -->
<!DOCTYPE svg PUBLIC "-//W3C//DTD SVG 1.1//EN" "http://www.w3.org/Graphics/SVG/1.1/DTD/svg11.dtd">
<svg version="1.1" id="图形" xmlns="http://www.w3.org/2000/svg" xmlns:xlink="http://www.w3.org/1999/xlink" x="0px" y="0px"
	 width="1000.637px" height="1000.678px" viewBox="0 0 1000.637 1000.678" enable-background="new 0 0 1000.637 1000.678"
	 xml:space="preserve">
<path id="_8.svg" d="M203.323,931.479C140.594,915.386,93.62,863.246,84.175,799.196c-9.565-61.37,10.333-105.388,80.497-178.192
	c23.881-24.768,60.581-59.908,81.484-78.131l38.04-33.051l-43.188-22.794c-84.028-44.41-113.883-68.863-132.125-108.699
	c-8.124-16.052-10.885-34.233-7.888-51.981c0.316-21.298,5.699-42.241,15.717-61.093c48.709-97.062,136.955-168.332,242.104-195.506
	c45.968-9.297,93.354-9.297,139.322,0c109.27,29.265,303.139,174.13,383.479,286.573c21.08,24.729,33.8,55.453,36.343,87.834
	c4.696,60.58-11.32,90.87-88.681,168.052C722.298,717.475,599.756,805.703,465.975,873.777
	c-115.265,57.465-195.742,75.133-262.514,57.702l0,0L203.323,931.479L203.323,931.479z M565.109,404.557
	c51.114-22.796,76.258-77.973,55.235-121.16c-19.918-29.698-46.104-54.664-76.751-73.122
	c-39.499-26.543-90.278-29.581-132.657-7.928c-91.699,44.094-58.411,170.659,54.763,208.008c33.071,7.139,67.482,5.127,99.485-5.837
	l0,0L565.109,404.557z M517.268,347.33c-12.976-7.771-28.042-11.359-43.129-10.255c-32.301-0.354-39.302-5.916-38.769-30.725
	c-3.214-18.142,8.893-35.456,27.017-38.65c2.979-0.513,5.995-0.631,9.013-0.355c15.716-1.184,31.434,2.603,44.863,10.885
	c38.531,18.892,49.894,45.831,28.753,67.995l-10.531,11.083L517.268,347.33L517.268,347.33L517.268,347.33z M517.268,347.33
	l-80.438-30.686c5.029,22.561,22.717,40.151,45.297,45.082c41.649,7.178,52.121-5.837,52.121-5.837"/>
</svg>
