<?xml version="1.0" encoding="utf-8"?>
<!-- Generator: Adobe Illustrator 16.0.0, SVG Export Plug-In . SVG Version: 6.00 Build 0)  -->
<!DOCTYPE svg PUBLIC "-//W3C//DTD SVG 1.1//EN" "http://www.w3.org/Graphics/SVG/1.1/DTD/svg11.dtd">
<svg version="1.1" id="图形" xmlns="http://www.w3.org/2000/svg" xmlns:xlink="http://www.w3.org/1999/xlink" x="0px" y="0px"
	 width="1000.637px" height="1000.678px" viewBox="0 0 1000.637 1000.678" enable-background="new 0 0 1000.637 1000.678"
	 xml:space="preserve">
<path id="备案.svg" d="M694.369,422.596c-11.018-1.351-22.122-1.89-33.229-1.574h-22.302v65.875h25.315
	c12.229,0.719,24.55-0.496,36.511-3.599c5.846-2.248,10.883-6.204,14.434-11.42c3.553-5.35,5.353-11.646,5.262-18.077
	c0.271-7.643-2.338-15.108-7.329-20.862C708.172,427.45,701.563,423.764,694.369,422.596z M855.883,219.398
	c-120.236-25.405-233.549-76.216-332.471-149.059c-13.827-9.893-32.444-9.893-46.271,0
	c-98.877,72.843-212.212,123.654-332.357,149.059c-22.707,6.879-37.568,28.643-35.769,52.295
	c8.7,337.599,119.157,523.031,372.04,661.074c11.983,6.654,26.551,6.654,38.535,0c252.885-138.131,363.361-323.477,372.04-661.074
	c1.755-23.607-13.084-45.28-35.746-52.205V219.398z M317.876,614.055h-46.044V381.677h46.044V614.055z M518.758,599.576
	c-42.469,28.869-99.552,23.382-135.681-13.221c-20.594-23.922-31.094-54.856-29.34-86.422c-2.023-32.688,8.521-64.93,29.521-90.108
	c19.874-21.583,48.225-33.365,77.542-32.195c25.18-1.079,49.732,8.004,68.19,25.179c11.511,11.873,19.604,26.667,23.383,42.762
	l-45.708,11.108c-2.204-11.154-8.185-21.226-16.953-28.51c-8.881-7.104-19.964-10.792-31.319-10.431
	c-15.917-0.631-31.183,6.205-41.435,18.39c-12.027,17.492-17.626,38.669-15.828,59.85c-2.001,22.078,3.485,44.245,15.604,62.77
	c9.87,12.231,24.865,19.154,40.559,18.705c11.69,0.182,22.999-4.047,31.678-11.869c10.049-10.253,16.683-23.293,19.021-37.411
	l44.83,14.389c-4.677,22.302-16.638,42.269-34.017,57.016L518.758,599.576L518.758,599.576z M760.198,489.053
	c-4.498,9.083-11.151,16.996-19.427,23.021c-7.148,5.217-15.287,8.949-23.921,10.972c-15.828,2.607-31.835,3.688-47.887,3.327
	h-30.127v87.502h-46.044V381.496h74.146c18.347-0.719,36.781,0.45,54.948,3.507c13.219,3.598,24.864,11.602,32.914,22.752
	c9.263,13.221,13.939,29.093,13.22,45.235c0.404,12.5-2.295,24.911-7.823,36.152L760.198,489.053L760.198,489.053z"/>
</svg>
