<?xml version="1.0" encoding="utf-8"?>
<!-- Generator: Adobe Illustrator 16.0.0, SVG Export Plug-In . SVG Version: 6.00 Build 0)  -->
<!DOCTYPE svg PUBLIC "-//W3C//DTD SVG 1.1//EN" "http://www.w3.org/Graphics/SVG/1.1/DTD/svg11.dtd">
<svg version="1.1" id="图形" xmlns="http://www.w3.org/2000/svg" xmlns:xlink="http://www.w3.org/1999/xlink" x="0px" y="0px"
	 width="1000.637px" height="1000.678px" viewBox="15.167 -16.333 1000.637 1000.678"
	 enable-background="new 15.167 -16.333 1000.637 1000.678" xml:space="preserve">
<path id="btn-ip-b.svg" d="M252.005,886.406H79.69V81.605h172.315V886.406z M654.078,604.457H529.037v281.949h-168.94V81.605
	h310.767c180.253,4.853,273.689,89.044,280.377,252.443c2.296,182.939-96.78,273.163-297.163,270.802V604.457z M640.571,220.35
	H529.037v245.1H640.44c65.11,9.049,125.239-36.457,134.288-101.502c1.049-7.605,1.312-15.277,0.918-22.949
	c2.295-64.914-48.521-119.402-113.438-121.697c-7.212-0.262-14.557,0.131-21.769,1.312L640.571,220.35z"/>
</svg>
