<?xml version="1.0" encoding="utf-8"?>
<!-- Generator: Adobe Illustrator 16.0.0, SVG Export Plug-In . SVG Version: 6.00 Build 0)  -->
<!DOCTYPE svg PUBLIC "-//W3C//DTD SVG 1.1//EN" "http://www.w3.org/Graphics/SVG/1.1/DTD/svg11.dtd">
<svg version="1.1" id="图形" xmlns="http://www.w3.org/2000/svg" xmlns:xlink="http://www.w3.org/1999/xlink" x="0px" y="0px"
	 width="1000.637px" height="1000.678px" viewBox="15.167 -16.333 1000.637 1000.678"
	 enable-background="new 15.167 -16.333 1000.637 1000.678" xml:space="preserve">
<g>
	<path id="形状_37_拷贝" d="M331.904,818.759h-152.83V104.942h152.83V818.759z M688.508,568.695h-110.9v250.064H427.801V104.942
		h275.654c159.805,4.361,242.734,79.003,248.666,223.924c1.977,162.25-85.895,242.271-263.612,240.177V568.695z M676.585,227.996
		h-98.978v217.411h98.862c57.744,7.996,111.016-32.306,119.043-90.023c0.93-6.718,1.219-13.55,0.811-20.326
		c2.037-57.601-42.975-105.928-100.604-107.935c-6.397-0.232-12.852,0.117-19.249,1.106L676.585,227.996z"/>
	<path id="形状_93" d="M78.817,208.02l80.543-87.755L873.96,775.374l-80.541,87.695L78.817,208.02z"/>
</g>
</svg>
