<?xml version="1.0" encoding="utf-8"?>
<!-- Generator: Adobe Illustrator 16.0.0, SVG Export Plug-In . SVG Version: 6.00 Build 0)  -->
<!DOCTYPE svg PUBLIC "-//W3C//DTD SVG 1.1//EN" "http://www.w3.org/Graphics/SVG/1.1/DTD/svg11.dtd">
<svg version="1.1" id="图形" xmlns="http://www.w3.org/2000/svg" xmlns:xlink="http://www.w3.org/1999/xlink" x="0px" y="0px"
	 width="1000.637px" height="1000.678px" viewBox="15.167 -16.333 1000.637 1000.678"
	 enable-background="new 15.167 -16.333 1000.637 1000.678" xml:space="preserve">
<path id="IP.svg" d="M390.812,47.645H640.16c172.158,0,311.686,139.529,311.686,311.685v249.349
	c0,172.158-139.527,311.688-311.686,311.688H390.812c-172.128,0-311.688-139.529-311.688-311.688V359.33
	C79.124,187.174,218.684,47.645,390.812,47.645z M364.696,734.816V288.593h-90.159v446.223H364.696z M540.597,734.816V566.431
	h58.715c31.352,0.732,62.643-1.336,93.506-6.207c16.861-3.896,32.691-11.08,46.754-21.186c16.01-11.445,28.977-26.541,37.928-43.953
	c10.529-21.49,15.643-45.232,14.852-69.156c1.4-31.048-7.672-61.605-25.813-86.93c-15.826-21.428-38.473-36.771-64.225-43.589
	c-35.369-5.965-71.285-8.158-107.203-6.697h-144.52v446.223h89.822L540.597,734.816z M584.277,364.079
	c21.611-0.667,43.283,0.367,64.771,3.044c14,2.253,26.785,9.253,36.281,19.726c9.74,11.077,14.855,25.444,14.307,40.176
	c0.242,12.42-3.348,24.472-10.227,34.762c-6.879,10.044-16.742,17.654-28.125,21.853c-23.254,5.968-47.301,8.403-71.285,7.003
	h-49.586V364.079h43.619H584.277z"/>
</svg>
