<?xml version="1.0" encoding="utf-8"?>
<!-- Generator: Adobe Illustrator 16.0.0, SVG Export Plug-In . SVG Version: 6.00 Build 0)  -->
<!DOCTYPE svg PUBLIC "-//W3C//DTD SVG 1.1//EN" "http://www.w3.org/Graphics/SVG/1.1/DTD/svg11.dtd">
<svg version="1.1" id="图形" xmlns="http://www.w3.org/2000/svg" xmlns:xlink="http://www.w3.org/1999/xlink" x="0px" y="0px"
	 width="1000.637px" height="1000.678px" viewBox="0 0 1000.637 1000.678" enable-background="new 0 0 1000.637 1000.678"
	 xml:space="preserve">
<path id="btn-key-b.svg" d="M871.718,128.06c-108.65-108.711-284.764-108.834-393.477-0.183
	c-83.476,83.353-105.229,210.335-54.388,316.786L77.796,790.537l6.295,124.783l124.783,6.232L346.49,783.818
	c0,0-65.568-65.512-43.752-87.511c21.754-22.12,87.569,43.753,87.569,43.753l-43.816,43.758l131.384-131.387l-43.753,43.876
	c0,0-65.631-65.63-43.814-87.629c21.753-22.122,87.567,43.753,87.567,43.753l77.119-76.995
	c138.655,66.24,304.748,7.576,370.987-131.141c50.845-106.389,29.091-233.311-54.385-316.663l0,0L871.718,128.06z M303.104,827.815
	l-43.876,43.751c0,0-65.508-65.509-43.755-87.629C237.229,761.939,303.104,827.815,303.104,827.815L303.104,827.815z
	 M740.458,390.399c-36.298,36.177-95.023,36.055-131.262-0.246c-36.177-36.235-36.054-94.962,0.245-131.199
	c36.176-36.115,94.84-36.115,131.017,0c36.297,36.237,36.297,95.023,0.121,131.324C740.519,390.278,740.458,390.337,740.458,390.399
	L740.458,390.399z"/>
</svg>
