<?xml version="1.0" encoding="utf-8"?>
<!-- Generator: Adobe Illustrator 18.0.0, SVG Export Plug-In . SVG Version: 6.00 Build 0)  -->
<!DOCTYPE svg PUBLIC "-//W3C//DTD SVG 1.1//EN" "http://www.w3.org/Graphics/SVG/1.1/DTD/svg11.dtd">
<svg version="1.1" id="图形" xmlns="http://www.w3.org/2000/svg" xmlns:xlink="http://www.w3.org/1999/xlink" x="0px" y="0px"
	 viewBox="0 0 100 100" enable-background="new 0 0 100 100" xml:space="preserve">
<g>
	<g>
		<path fill="#CCCCCC" d="M82.795,6.273h-65.59c-6.037,0-10.932,4.894-10.932,10.932v65.59c0,6.038,4.894,10.932,10.932,10.932
			h65.59c6.037,0,10.932-4.894,10.932-10.932v-65.59C93.727,11.167,88.833,6.273,82.795,6.273z M49.328,22.671
			c7.547,1.192,12.698,8.277,11.506,15.824C59.641,46.041,52.556,51.192,45.01,50c-6.723-1.062-11.675-6.858-11.675-13.664
			C34.028,28.172,41.156,22.082,49.328,22.671z M77.329,73.339c0,3.826-9.254,3.99-20.666,3.99H43.332
			c-11.413,0-20.661,0-20.661-3.99v-1.137c0.897-10.546,10.105-18.411,20.661-17.649h13.315
			c10.565-0.775,19.786,7.094,20.683,17.649C77.329,72.202,77.329,73.339,77.329,73.339z"/>
	</g>
</g>
</svg>
