<?xml version="1.0" encoding="utf-8"?>
<!-- Generator: Adobe Illustrator 16.0.0, SVG Export Plug-In . SVG Version: 6.00 Build 0)  -->
<!DOCTYPE svg PUBLIC "-//W3C//DTD SVG 1.1//EN" "http://www.w3.org/Graphics/SVG/1.1/DTD/svg11.dtd">
<svg version="1.1" id="图形" xmlns="http://www.w3.org/2000/svg" xmlns:xlink="http://www.w3.org/1999/xlink" x="0px" y="0px"
	 width="1000.637px" height="1000.678px" viewBox="0 0 1000.637 1000.678" enable-background="new 0 0 1000.637 1000.678"
	 xml:space="preserve">
<path id="btn-chngqi-b.svg" d="M307.911,616.58L205.86,718.519c-20.559,20.615-20.559,53.985,0.059,74.601
	c20.615,20.615,54.043,20.615,74.602,0l101.991-101.938c20.615-20.388,20.729-53.645,0.344-74.26c-0.114,0-0.229-0.114-0.344-0.229
	C361.897,596.077,328.526,596.077,307.911,616.58z M327.614,484.006c-0.229-29.044-23.804-52.448-52.847-52.448H130.69
	c-29.044,0-52.678,23.633-52.678,52.733c0,29.1,23.634,52.677,52.678,52.677h144.306
	C304.153,536.968,327.729,513.164,327.614,484.006L327.614,484.006L327.614,484.006z M280.52,175.008
	c-9.853-9.966-23.293-15.547-37.302-15.547l0,0c-28.985-0.285-52.733,23.008-52.962,51.993
	c-0.113,14.295,5.581,28.019,15.718,37.985l102.05,101.937c9.854,9.965,23.294,15.49,37.303,15.432l0,0
	c28.985,0.228,52.675-23.007,52.903-52.05c0.112-14.237-5.581-27.904-15.72-37.813L280.52,175.008z M685.36,366.921
	c14.009,0,27.447-5.58,37.301-15.545L824.71,249.44c20.615-20.446,20.674-53.645,0.229-74.204c-0.057-0.114-0.114-0.17-0.229-0.228
	c-20.9-19.932-53.758-19.932-74.715,0L648.06,276.83c-20.843,20.159-21.299,53.417-1.024,74.146
	C657.057,361.341,670.953,367.093,685.36,366.921z M722.661,616.58c-20.56-20.615-53.985-20.615-74.602,0
	c-20.614,20.501-20.614,53.987,0,74.602L750.11,793.006c20.614,20.615,53.984,20.615,74.486,0
	c20.615-20.502,20.615-53.872,0.06-74.487l0,0L722.661,616.58z M900.11,431.273H755.804c-29.156,0-52.732,23.575-52.732,52.732
	c0,29.158,23.576,52.733,52.732,52.733H900.11c29.156,0,52.848-23.69,52.848-52.849c0-29.157-23.69-52.847-52.848-52.847V431.273z
	 M515.258,671.591c-28.986-0.227-52.62,23.124-52.792,52.166c0,0.114,0,0.114,0,0.229v144.42c0,29.156,23.635,52.73,52.733,52.73
	c29.156,0,52.792-23.574,52.792-52.73V724.212c0.055-28.929-23.351-52.506-52.336-52.621c0,0,0,0-0.058,0H515.258z M515.258,46.876
	c-28.986-0.17-52.62,23.234-52.792,52.164c0,0.114,0,0.228,0,0.341v144.078c0,29.157,23.635,52.733,52.733,52.733
	c29.156,0,52.792-23.576,52.792-52.733V99.609c0.112-28.929-23.293-52.563-52.278-52.677c-0.058,0-0.058,0-0.114,0L515.258,46.876z"
	/>
</svg>
