<?xml version="1.0" encoding="utf-8"?>
<!-- Generator: Adobe Illustrator 16.0.0, SVG Export Plug-In . SVG Version: 6.00 Build 0)  -->
<!DOCTYPE svg PUBLIC "-//W3C//DTD SVG 1.1//EN" "http://www.w3.org/Graphics/SVG/1.1/DTD/svg11.dtd">
<svg version="1.1" id="图形" xmlns="http://www.w3.org/2000/svg" xmlns:xlink="http://www.w3.org/1999/xlink" x="0px" y="0px"
	 width="1000.637px" height="1000.678px" viewBox="15.167 -16.333 1000.637 1000.678"
	 enable-background="new 15.167 -16.333 1000.637 1000.678" xml:space="preserve">
<path id="冻结账号.svg" d="M841.736,348.166h-84.24v-82.111c-3.926-124-107.471-221.427-231.44-217.762H504.98
	c-124.034-3.632-227.645,93.827-231.54,217.893v82.177h-84.205c-22.549-0.688-41.4,17.05-42.086,39.598V880.2
	c0.687,22.515,19.537,40.319,42.086,39.598h652.5c22.578,0.722,41.43-17.083,42.084-39.598V387.765
	C883.166,365.216,864.314,347.478,841.736,348.166L841.736,348.166L841.736,348.166z M331.333,268.739
	c2.913-93.042,80.638-166.152,173.68-163.403h21.042c93.009-2.717,170.702,70.394,173.583,163.403v79.427H331.005v-79.427l0,0
	H331.333z M462.828,582.913h105.314v99.095H462.828V582.913L462.828,582.913z"/>
</svg>
