<?xml version="1.0" encoding="utf-8"?>
<!-- Generator: Adobe Illustrator 16.0.0, SVG Export Plug-In . SVG Version: 6.00 Build 0)  -->
<!DOCTYPE svg PUBLIC "-//W3C//DTD SVG 1.1//EN" "http://www.w3.org/Graphics/SVG/1.1/DTD/svg11.dtd">
<svg version="1.1" id="图形" xmlns="http://www.w3.org/2000/svg" xmlns:xlink="http://www.w3.org/1999/xlink" x="0px" y="0px"
	 width="1000.637px" height="1000.678px" viewBox="15.167 -16.333 1000.637 1000.678"
	 enable-background="new 15.167 -16.333 1000.637 1000.678" xml:space="preserve">
<path id="leftbar-rizhi.svg" d="M132.362,128.248h54.73c30.228,0,54.733,24.479,54.733,54.731v54.732
	c0,30.198-24.506,54.73-54.733,54.73h-54.73c-30.226,0-54.731-24.532-54.731-54.73V182.98
	C77.63,152.728,102.136,128.248,132.362,128.248z M460.752,128.248h437.854c30.252,0,54.732,24.479,54.732,54.731v54.732
	c0,30.198-24.48,54.73-54.732,54.73H460.752c-30.226,0-54.732-24.532-54.732-54.73V182.98
	C406.02,152.728,430.527,128.248,460.752,128.248z M132.362,401.907h54.73c30.228,0,54.733,24.48,54.733,54.732v54.73
	c0,30.253-24.506,54.731-54.733,54.731h-54.73c-30.226,0-54.731-24.479-54.731-54.731v-54.73
	C77.63,426.388,102.136,401.907,132.362,401.907z M460.752,401.907h437.854c30.252,0,54.732,24.48,54.732,54.732v54.73
	c0,30.253-24.48,54.731-54.732,54.731H460.752c-30.226,0-54.732-24.479-54.732-54.731v-54.73
	C406.02,426.388,430.527,401.907,460.752,401.907z M132.362,675.567h54.73c30.228,0,54.733,24.479,54.733,54.731v54.732
	c0,30.252-24.506,54.732-54.733,54.732h-54.73c-30.226,0-54.731-24.48-54.731-54.732v-54.732
	C77.63,700.045,102.136,675.567,132.362,675.567z M460.752,675.567h437.854c30.252,0,54.732,24.479,54.732,54.731v54.732
	c0,30.252-24.48,54.732-54.732,54.732H460.752c-30.226,0-54.732-24.48-54.732-54.732v-54.732
	C406.02,700.045,430.527,675.567,460.752,675.567z"/>
</svg>
