<?xml version="1.0" encoding="utf-8"?>
<!-- Generator: Adobe Illustrator 16.0.0, SVG Export Plug-In . SVG Version: 6.00 Build 0)  -->
<!DOCTYPE svg PUBLIC "-//W3C//DTD SVG 1.1//EN" "http://www.w3.org/Graphics/SVG/1.1/DTD/svg11.dtd">
<svg version="1.1" id="图形" xmlns="http://www.w3.org/2000/svg" xmlns:xlink="http://www.w3.org/1999/xlink" x="0px" y="0px"
	 width="1000.637px" height="1000.678px" viewBox="0 0 1000.637 1000.678" enable-background="new 0 0 1000.637 1000.678"
	 xml:space="preserve">
<path id="btn-chakan-b.svg" d="M79.132,484.006c0,105.923,143.728,342.848,436.354,342.848
	c289.034,0,436.353-239.48,436.353-342.848c0-103.365-147.927-342.848-436.353-342.848
	C227.059,141.158,79.132,377.962,79.132,484.006z M515.485,277.944c113.838-10.652,214.646,72.99,225.358,186.826
	c10.594,113.836-73.05,214.646-186.824,225.359c-113.837,10.593-214.707-73.05-225.358-186.887
	c-0.609-6.394-0.854-12.783-0.854-19.236C322.938,375.344,406.824,283.241,515.485,277.944z M515.485,352.152
	c72.808-1.949,133.438,55.457,135.387,128.324c1.948,72.808-55.457,133.438-128.263,135.387
	c-72.809,1.947-133.439-55.52-135.389-128.324c-0.062-1.218-0.121-2.375-0.121-3.531
	C386.186,412.175,443.652,353.125,515.485,352.152z"/>
</svg>
