<?xml version="1.0" encoding="utf-8"?>
<!-- Generator: Adobe Illustrator 16.0.0, SVG Export Plug-In . SVG Version: 6.00 Build 0)  -->
<!DOCTYPE svg PUBLIC "-//W3C//DTD SVG 1.1//EN" "http://www.w3.org/Graphics/SVG/1.1/DTD/svg11.dtd">
<svg version="1.1" id="图形" xmlns="http://www.w3.org/2000/svg" xmlns:xlink="http://www.w3.org/1999/xlink" x="0px" y="0px"
	 width="1000.637px" height="1000.678px" viewBox="0 0 1000.637 1000.678" enable-background="new 0 0 1000.637 1000.678"
	 xml:space="preserve">
<path id="xinfeng.svg" d="M681.065,500.34l220.144-235.208c23.941,40.648,36.637,86.953,36.898,134.179v202.058
	c-0.263,47.357-13.22,93.924-37.49,134.704L681.065,500.34z M319.638,500.34L99.956,736.072
	c-24.204-40.78-37.097-87.347-37.427-134.704V399.311c0.263-47.095,13.024-93.268,36.9-133.849L319.638,500.34z M624.629,500.34
	c-75.704,48.801-172.919,48.801-248.556,0L127.646,224.878c50.844-60.248,125.562-94.977,204.291-94.977h336.761
	c78.8,0.197,153.518,35.124,204.229,95.504L624.629,500.34z M128.5,775.536l219.816-244.942l11.574,12.367
	c85.374,55.511,195.479,55.511,280.855,0l11.575-12.367l219.88,244.942c-50.646,59.986-124.974,94.845-203.506,95.24H331.935
	c-78.334-0.135-152.725-34.599-203.437-94.321v-0.919H128.5z"/>
</svg>
