<?xml version="1.0" encoding="utf-8"?>
<!-- Generator: Adobe Illustrator 16.0.0, SVG Export Plug-In . SVG Version: 6.00 Build 0)  -->
<!DOCTYPE svg PUBLIC "-//W3C//DTD SVG 1.1//EN" "http://www.w3.org/Graphics/SVG/1.1/DTD/svg11.dtd">
<svg version="1.1" id="图形" xmlns="http://www.w3.org/2000/svg" xmlns:xlink="http://www.w3.org/1999/xlink" x="0px" y="0px"
	 width="1000.637px" height="1000.678px" viewBox="15.167 -16.333 1000.637 1000.678"
	 enable-background="new 15.167 -16.333 1000.637 1000.678" xml:space="preserve">
<g>
	<path d="M935.621,368.358c-2.367,19.396-11.164,37.455-24.953,51.32L577.482,752.736c-34.266,34.111-89.677,34.111-123.942,0
		L120.303,419.678c-13.84-13.814-22.638-31.898-24.851-51.32c-0.463,3.601-0.72,7.229-0.771,10.855v455.582
		c0.154,48.364,39.359,87.518,87.67,87.672h666.27c48.363-0.154,87.516-39.308,87.668-87.672V379.213
		C936.289,375.586,936.033,371.958,935.621,368.358L935.621,368.358z"/>
	<g>
		<g>
			<g>
				<path d="M869.201,361.515H518.262l59.065,327.424l349.289-349.136c-8.993-17.862-23.601-31.733-41.057-39.92l11.629,9.308
					C923.583,335.841,904.031,361.515,869.201,361.515z"/>
				<polygon points="518.262,361.515 505.649,291.595 505.518,291.595 518.154,361.515 				"/>
				<path d="M518.154,361.515H186.981c-34.78,0-75.631-7.28-27.372-52.324l21.916-17.58c-32.708,0.358-62.582,18.932-77.327,48.192
					L453.54,688.939c34.265,34.109,89.676,34.109,123.942,0h-0.154L518.154,361.515z"/>
				<path d="M885.56,299.883L591.63,64.625c-38.484-25.441-88.441-25.441-126.926,0l40.944,226.97h342.815
					C861.538,291.605,874.155,294.534,885.56,299.883z"/>
				<path d="M505.518,291.595l-41.019-226.97L181.526,291.611c0.275-0.003,0.549-0.015,0.825-0.016H505.518z"/>
			</g>
		</g>
	</g>
</g>
</svg>
