<?xml version="1.0" encoding="utf-8"?>
<!-- Generator: Adobe Illustrator 16.0.0, SVG Export Plug-In . SVG Version: 6.00 Build 0)  -->
<!DOCTYPE svg PUBLIC "-//W3C//DTD SVG 1.1//EN" "http://www.w3.org/Graphics/SVG/1.1/DTD/svg11.dtd">
<svg version="1.1" id="图形" xmlns="http://www.w3.org/2000/svg" xmlns:xlink="http://www.w3.org/1999/xlink" x="0px" y="0px"
	 width="1000.637px" height="1000.678px" viewBox="15.167 -16.333 1000.637 1000.678"
	 enable-background="new 15.167 -16.333 1000.637 1000.678" xml:space="preserve">
<path id="btn-shouqi.svg" d="M909.075,727.543L909.075,727.543c-11.797,0-23.022-4.757-31.205-13.134L546.607,379.916
	c-17.123-17.316-45.001-17.505-62.313-0.383c-0.095,0.193-0.238,0.286-0.332,0.383L152.697,714.409
	c-8.229,8.377-19.502,13.134-31.253,13.134l0,0c-24.687-0.19-44.523-20.36-44.332-45.099c0.143-11.795,4.804-22.832,13.082-31.199
	l394.052-397.67c17.079-17.316,44.952-17.505,62.265-0.38c0.143,0.191,0.241,0.191,0.381,0.38l393.96,397.67
	c17.408,17.5,17.313,45.854-0.098,63.164C932.288,722.786,920.966,727.543,909.075,727.543z"/>
</svg>
