<?xml version="1.0" encoding="utf-8"?>
<!-- Generator: Adobe Illustrator 18.0.0, SVG Export Plug-In . SVG Version: 6.00 Build 0)  -->
<!DOCTYPE svg PUBLIC "-//W3C//DTD SVG 1.1//EN" "http://www.w3.org/Graphics/SVG/1.1/DTD/svg11.dtd">
<svg version="1.1" id="图形" xmlns="http://www.w3.org/2000/svg" xmlns:xlink="http://www.w3.org/1999/xlink" x="0px" y="0px"
	 viewBox="0 0 100 100" enable-background="new 0 0 100 100" xml:space="preserve">
<g>
	<path id="矩形_31" fill="#CCCCCC" d="M13.001,6.274h26.908c3.715,0,6.727,3.012,6.727,6.727v26.908
		c0,3.715-3.012,6.727-6.727,6.727H13.001c-3.715,0-6.727-3.012-6.727-6.727V13.001C6.274,9.286,9.286,6.274,13.001,6.274z"/>
	<path id="矩形_31_拷贝" fill="#CCCCCC" d="M60.091,6.274h26.908c3.715,0,6.727,3.012,6.727,6.727v26.908
		c0,3.715-3.012,6.727-6.727,6.727H60.091c-3.715,0-6.727-3.012-6.727-6.727V13.001C53.364,9.286,56.375,6.274,60.091,6.274z"/>
	<path id="矩形_31_拷贝_2" fill="#CCCCCC" d="M13.001,53.364h26.908c3.715,0,6.727,3.012,6.727,6.727v26.908
		c0,3.715-3.012,6.727-6.727,6.727H13.001c-3.715,0-6.727-3.012-6.727-6.727V60.091C6.274,56.375,9.286,53.364,13.001,53.364z"/>
	<path id="矩形_31_拷贝_3" fill="#CCCCCC" d="M60.091,53.364h26.908c3.715,0,6.727,3.012,6.727,6.727v26.908
		c0,3.715-3.012,6.727-6.727,6.727H60.091c-3.715,0-6.727-3.012-6.727-6.727V60.091C53.364,56.375,56.375,53.364,60.091,53.364z"/>
</g>
</svg>
