<?xml version="1.0" encoding="utf-8"?>
<!-- Generator: Adobe Illustrator 16.0.0, SVG Export Plug-In . SVG Version: 6.00 Build 0)  -->
<!DOCTYPE svg PUBLIC "-//W3C//DTD SVG 1.1//EN" "http://www.w3.org/Graphics/SVG/1.1/DTD/svg11.dtd">
<svg version="1.1" id="图形" xmlns="http://www.w3.org/2000/svg" xmlns:xlink="http://www.w3.org/1999/xlink" x="0px" y="0px"
	 width="1000.637px" height="1000.678px" viewBox="15.167 -16.333 1000.637 1000.678"
	 enable-background="new 15.167 -16.333 1000.637 1000.678" xml:space="preserve">
<path id="icon-zhankai.svg" d="M122.182,239.058L122.182,239.058c11.782,0,22.995,4.75,31.213,13.111l330.798,336.166
	c16.961,17.293,44.658,17.672,61.951,0.76c0.189-0.189,0.427-0.382,0.617-0.76l330.891-336.166
	c8.173-8.458,19.671-13.304,31.547-13.111l0,0c24.896,0.379,44.658,20.902,44.185,45.797c-0.193,11.592-4.847,22.614-12.923,30.784
	L546.856,715.847c-16.912,17.29-44.61,17.483-61.903,0.567c-0.191-0.188-0.428-0.379-0.617-0.567L90.828,316.02
	c-17.626-17.672-17.674-46.178-0.095-63.758C99.046,243.901,110.353,239.058,122.182,239.058z"/>
</svg>
