<?xml version="1.0" encoding="utf-8"?>
<!-- Generator: Adobe Illustrator 16.0.0, SVG Export Plug-In . SVG Version: 6.00 Build 0)  -->
<!DOCTYPE svg PUBLIC "-//W3C//DTD SVG 1.1//EN" "http://www.w3.org/Graphics/SVG/1.1/DTD/svg11.dtd">
<svg version="1.1" id="图形" xmlns="http://www.w3.org/2000/svg" xmlns:xlink="http://www.w3.org/1999/xlink" x="0px" y="0px"
	 width="1000.637px" height="1000.678px" viewBox="0 0 1000.637 1000.678" enable-background="new 0 0 1000.637 1000.678"
	 xml:space="preserve">
<g>
	<path id="形状_39" d="M64.653,207.116v586.106c0.228,22.982,18.944,41.414,41.926,41.188c12.06-0.114,23.552-5.52,31.345-14.789
		l235.115-279.088c19.684-23.296,19.684-57.43,0-80.725L137.811,180.89c-14.848-17.463-41.072-19.597-58.537-4.721
		C70.172,183.907,64.823,195.167,64.653,207.116z"/>
	<g>
		<g>
			<path d="M895.594,167.629c-12.234-0.082-23.876,5.333-31.673,14.78L632.962,460.173c-19.38,23.28-19.38,57.038,0,80.318
				l230.961,277.792c14.293,17.324,39.955,19.762,57.281,5.414c9.417-7.796,14.832-19.383,14.778-31.673V208.641
				C936.146,186.172,918.06,167.792,895.594,167.629z M863.257,651.04c0.03,6.66-2.903,12.94-8.009,17.166
				c-9.391,7.775-23.299,6.455-31.046-2.937L699.031,514.714c-10.506-12.616-10.506-30.912,0-43.53l125.171-150.541
				c4.228-5.12,10.535-8.055,17.166-8.01c12.176,0.088,21.978,10.049,21.889,22.226V651.04z"/>
		</g>
	</g>
	<path id="形状_40" d="M469.917,264.855h66.956v470.967h-66.956V264.855L469.917,264.855z"/>
</g>
</svg>
