<?xml version="1.0" encoding="utf-8"?>
<!-- Generator: Adobe Illustrator 18.0.0, SVG Export Plug-In . SVG Version: 6.00 Build 0)  -->
<!DOCTYPE svg PUBLIC "-//W3C//DTD SVG 1.1//EN" "http://www.w3.org/Graphics/SVG/1.1/DTD/svg11.dtd">
<svg version="1.1" id="图形" xmlns="http://www.w3.org/2000/svg" xmlns:xlink="http://www.w3.org/1999/xlink" x="0px" y="0px"
	 viewBox="0 0 100 100" enable-background="new 0 0 100 100" xml:space="preserve">
<path id="xiaoxiguanli.svg" fill="#CCCCCC" d="M93.651,25.194c-0.241,2.016-1.15,3.894-2.584,5.332L56.443,65.133
	c-3.562,3.544-9.319,3.544-12.881,0L8.938,30.542c-1.442-1.433-2.354-3.313-2.589-5.332c-0.046,0.374-0.07,0.751-0.071,1.128v47.341
	c0.015,5.024,4.085,9.092,9.109,9.104h69.227c5.024-0.012,9.094-4.08,9.109-9.104V26.338c-0.001-0.377-0.025-0.754-0.071-1.128l0,0
	C93.651,25.21,93.651,25.194,93.651,25.194z M56.427,58.504l36.299-36.278c-1.548-3.067-4.688-5.004-8.124-5.009H15.387
	c-3.435,0.005-6.576,1.942-8.124,5.009l36.299,36.278c3.562,3.544,9.319,3.544,12.881,0l0,0H56.427z"/>
</svg>
