<?xml version="1.0" encoding="utf-8"?>
<!-- Generator: Adobe Illustrator 16.0.0, SVG Export Plug-In . SVG Version: 6.00 Build 0)  -->
<!DOCTYPE svg PUBLIC "-//W3C//DTD SVG 1.1//EN" "http://www.w3.org/Graphics/SVG/1.1/DTD/svg11.dtd">
<svg version="1.1" id="图形" xmlns="http://www.w3.org/2000/svg" xmlns:xlink="http://www.w3.org/1999/xlink" x="0px" y="0px"
	 width="1000.637px" height="1000.678px" viewBox="15.167 -16.333 1000.637 1000.678"
	 enable-background="new 15.167 -16.333 1000.637 1000.678" xml:space="preserve">
<path id="leftbar-yunjiankong.svg" d="M549.312,266.487V45.302c215.891,16.626,387.426,188.161,404.023,404.053H731.893
	C717.241,355.173,643.463,281.283,549.312,266.487z M662.007,483.323c0,80.931-65.592,146.522-146.522,146.522
	c-80.931,0-146.522-65.591-146.522-146.522c0-80.902,65.591-146.522,146.522-146.522
	C596.416,336.801,662.007,402.421,662.007,483.323z M299.078,449.526H77.634C94.232,233.635,265.767,62.1,481.659,45.472v221.015
	C387.506,281.283,313.673,355.288,299.078,449.526z M515.485,703.108c108.118-0.114,199.979-79.1,216.408-185.957h221.442
	C934.792,758.97,723.707,939.948,481.831,921.404C265.825,904.806,94.232,733.155,77.634,517.151h221.444
	C315.505,624.008,407.367,702.993,515.485,703.108z"/>
</svg>
