<?xml version="1.0" encoding="utf-8"?>
<!-- Generator: Adobe Illustrator 18.0.0, SVG Export Plug-In . SVG Version: 6.00 Build 0)  -->
<!DOCTYPE svg PUBLIC "-//W3C//DTD SVG 1.1//EN" "http://www.w3.org/Graphics/SVG/1.1/DTD/svg11.dtd">
<svg version="1.1" id="图形" xmlns="http://www.w3.org/2000/svg" xmlns:xlink="http://www.w3.org/1999/xlink" x="0px" y="0px"
	 viewBox="0 0 100 100" enable-background="new 0 0 100 100" xml:space="preserve">
<path id="形状_49.svg" fill="#CCCCCC" d="M50,6.276C25.852,6.276,6.276,25.852,6.276,50c0,24.148,19.576,43.724,43.724,43.724
	S93.724,74.148,93.724,50C93.727,25.855,74.156,6.279,50.011,6.276C50.007,6.276,50.004,6.276,50,6.276L50,6.276z M87.164,48.619
	H72.809c-0.118-5.186-1.191-10.306-3.166-15.102c3.204-1.446,6.172-3.367,8.804-5.698c5.518,5.526,8.653,12.992,8.733,20.801l0,0
	H87.164z M48.477,87.158c-4.054-4.115-7.146-9.077-9.055-14.529c2.941-1.135,6.052-1.768,9.202-1.872v16.407h-0.147L48.477,87.158z
	 M51.523,12.842c5.392,4.582,9.614,10.382,12.319,16.92c-3.261,1.367-6.743,2.132-10.278,2.26l-2.183-19.163h0.142V12.842z
	 M56.118,13.311c7.68,1.376,14.789,4.969,20.451,10.337c-2.381,2.101-5.063,3.834-7.958,5.142
	C65.427,22.911,61.192,17.665,56.118,13.311L56.118,13.311z M48.625,12.836v19.163c-3.532-0.13-7.011-0.896-10.272-2.26
	c1.927-6.39,5.407-12.204,10.13-16.92h0.142V12.836z M33.582,28.79c-3.126-1.3-6.054-3.03-8.7-5.142
	c5.113-5.331,11.756-8.943,19.01-10.337C39.49,17.757,35.988,23.014,33.582,28.79L33.582,28.79z M37.31,34.466
	c3.59,1.506,7.424,2.345,11.315,2.478v11.675H34.314c0.116-4.862,1.13-9.66,2.991-14.153l0,0H37.31z M48.625,53.569v12.248
	c-3.54,0.113-7.034,0.829-10.332,2.118c-2.465-4.397-3.827-9.327-3.968-14.366H48.63L48.625,53.569L48.625,53.569z M43.892,86.694
	c-6.671-1.107-12.913-4.017-18.05-8.416c2.732-1.908,5.682-3.482,8.787-4.688c2.333,4.858,5.47,9.287,9.279,13.099l0,0
	L43.892,86.694z M51.386,87.169l2.183-16.407c3.151,0.104,6.261,0.737,9.202,1.872c-2.685,5.58-6.516,10.53-11.244,14.529h-0.147
	L51.386,87.169z M67.569,73.59c2.419,1.231,4.645,2.81,6.604,4.688c-5.136,4.399-11.378,7.31-18.05,8.416
	c4.486-3.736,8.354-8.157,11.462-13.099l0,0L67.569,73.59z M63.907,67.935c-3.298-1.289-6.793-2.005-10.332-2.118V53.58h14.3
	c-0.143,5.039-1.504,9.968-3.968,14.366l0,0L63.907,67.935z M53.575,48.625V36.95c3.891-0.132,7.725-0.972,11.315-2.478
	c1.863,4.492,2.877,9.291,2.991,14.153h-14.3C53.58,48.625,53.575,48.625,53.575,48.625z M23.01,27.824
	c2.896,2.342,6.11,4.26,9.546,5.698c-1.974,4.797-3.047,9.917-3.166,15.102H12.852C13.457,40.648,17.092,33.205,23.01,27.824
	L23.01,27.824z M12.836,53.58h16.538c0.141,5.362,1.562,10.613,4.143,15.315c-3.461,1.361-6.74,3.149-9.759,5.322
	c-6.479-6.44-10.561-10.883-10.916-20.637l0,0C12.842,53.58,12.836,53.58,12.836,53.58z M76.242,74.217
	c-2.243-2.142-4.795-3.936-7.57-5.322c2.581-4.702,4.001-9.953,4.143-15.315h14.355c-0.36,9.754-4.448,14.191-10.916,20.637l0,0
	C76.253,74.217,76.242,74.217,76.242,74.217z"/>
</svg>
