<?xml version="1.0" encoding="utf-8"?>
<!-- Generator: Adobe Illustrator 16.0.0, SVG Export Plug-In . SVG Version: 6.00 Build 0)  -->
<!DOCTYPE svg PUBLIC "-//W3C//DTD SVG 1.1//EN" "http://www.w3.org/Graphics/SVG/1.1/DTD/svg11.dtd">
<svg version="1.1" id="图形" xmlns="http://www.w3.org/2000/svg" xmlns:xlink="http://www.w3.org/1999/xlink" x="0px" y="0px"
	 width="1000.637px" height="1000.678px" viewBox="15.167 -16.333 1000.637 1000.678"
	 enable-background="new 15.167 -16.333 1000.637 1000.678" xml:space="preserve">
<path id="btn-quxiaotiaozheng-b.svg" d="M215.158,299.2v-92.407h92.409V299.2H215.158z M677.201,299.2v-92.407h138.611V299.2
	H677.201z M492.383,114.384c76.525,0,138.613,62.065,138.613,138.613S568.909,391.61,492.383,391.61
	c-76.548,0-138.613-62.064-138.613-138.612S415.835,114.384,492.383,114.384z M677.201,530.221
	c76.524,0,138.611,62.043,138.611,138.613s-62.087,138.612-138.611,138.612c-76.527,0-138.613-62.042-138.613-138.612
	S600.673,530.221,677.201,530.221z M215.158,715.038v-92.407h277.226v92.407H215.158z M266.257,88.823l82.618-41.285
	l415.858,831.695l-82.662,41.24L266.257,88.823z"/>
</svg>
