<?xml version="1.0" encoding="utf-8"?>
<!-- Generator: Adobe Illustrator 16.0.0, SVG Export Plug-In . SVG Version: 6.00 Build 0)  -->
<!DOCTYPE svg PUBLIC "-//W3C//DTD SVG 1.1//EN" "http://www.w3.org/Graphics/SVG/1.1/DTD/svg11.dtd">
<svg version="1.1" id="图形" xmlns="http://www.w3.org/2000/svg" xmlns:xlink="http://www.w3.org/1999/xlink" x="0px" y="0px"
	 width="1000.637px" height="1000.678px" viewBox="0 0 1000.637 1000.678" enable-background="new 0 0 1000.637 1000.678"
	 xml:space="preserve">
<path id="_6.svg" d="M500.437,63.017C258.912,62.952,63.063,258.686,62.995,500.231c-0.056,241.524,195.68,437.354,437.204,437.43
	c241.535,0.074,437.365-195.676,437.442-437.201c0-0.021,0-0.039,0-0.039c-0.06-241.488-195.83-437.223-437.319-437.213l0,0
	L500.437,63.017z M502.552,123.56c208.08-0.056,376.796,168.582,376.852,376.65c0.056,208.071-168.563,376.806-376.652,376.843
	c-108.02,0.037-210.858-46.301-282.398-127.25c28.369-22.014,75.78-16.625,134.331-9.981c28.018,3.186,59.943,6.832,92.924,7.59
	c86.075,1.707,171.692-12.865,252.341-42.963c28.862-10.398,56.056-24.935,80.704-43.188c5.562-5.77,9.583-12.864,11.672-20.606
	l2.068-5.465c3.207-9.3,5.862-18.748,7.911-28.351c1.252-2.998,0.759-6.416-1.31-8.881l-8.521,1.631
	c-47.855,27.82-101.502,44.252-156.74,48.008c-77.84,1.636-234.751-78.405-251.088-86.832l-1.613-1.936
	c-3.89-9.336-27.42-65.088-32.392-76.833c112.935,74.366,206.59,115.542,278.337,121.921
	c79.793,7.096,142.033-36.475,168.657-55.068c3.417-2.543,7.021-4.858,10.778-6.907l1.784-2.922
	c-4.422-28.048-46.301-163.763-77.725-196.269c-8.561-10.114-18.615-18.881-29.832-25.94
	c-114.063-66.49-384.982-106.529-397.667-108.39l-2.098,0.646l-0.797,1.765c0,0-1.034,56.265-1.129,62.487
	c-9.307-3.073-38.122-12.522-79.413-23.833c53.882-66.644,136.446-125.801,280.938-125.801l0,0L502.552,123.56z M602.071,322.959
	c1.954,0,3.909,0,5.845,0c63.985,2.163,114.102,55.75,111.957,119.736c-1.024,30.739-14.23,59.813-36.737,80.838
	c-22.393,21.1-52.336,32.336-83.096,31.231c-63.929-2.502-113.893-56.053-111.957-120.001
	c2.248-61.672,52.354-110.782,114.025-111.806l0,0L602.071,322.959L602.071,322.959z M599.034,357.115
	c-41.405,2.694-74.044,36.281-75.562,77.725c-1.689,44.631,33.111,82.166,77.724,83.874c44.595,1.67,82.146-33.133,83.837-77.725
	c1.688-44.632-33.095-82.165-77.707-83.836c-0.133-0.02-0.285-0.02-0.436-0.037c-2.678,0-5.221-0.152-7.763,0l0,0L599.034,357.115
	L599.034,357.115z M620.286,397.57c13.246,5.484,19.545,20.684,14.042,33.93c-5.482,13.265-20.683,19.545-33.929,14.061
	c-9.715-4.021-16.053-13.491-16.053-24.004C588.16,405.351,603.855,394.876,620.286,397.57L620.286,397.57z"/>
</svg>
