<?xml version="1.0" encoding="utf-8"?>
<!-- Generator: Adobe Illustrator 16.0.0, SVG Export Plug-In . SVG Version: 6.00 Build 0)  -->
<!DOCTYPE svg PUBLIC "-//W3C//DTD SVG 1.1//EN" "http://www.w3.org/Graphics/SVG/1.1/DTD/svg11.dtd">
<svg version="1.1" id="图形" xmlns="http://www.w3.org/2000/svg" xmlns:xlink="http://www.w3.org/1999/xlink" x="0px" y="0px"
	 width="1000.637px" height="1000.678px" viewBox="15.167 -16.333 1000.637 1000.678"
	 enable-background="new 15.167 -16.333 1000.637 1000.678" xml:space="preserve">
<path id="订单管理.svg" d="M869.819,920.824H161.123c-17.024,0-30.858-13.81-30.858-30.834c0-0.151,0-0.25,0.024-0.401V78.372
	c-0.201-17.05,13.434-31.035,30.482-31.211c0.126-0.024,0.251-0.024,0.352-0.024h708.696c17.074,0,30.885,13.81,30.885,30.858
	c0,0.126,0,0.251,0,0.377v811.316c0.201,17.023-13.458,30.985-30.482,31.187c-0.15,0-0.251,0-0.402,0l0,0V920.824z M315.19,242.031
	c0.025-4.269-3.415-7.784-7.708-7.81l0,0h-46.276c-4.293,0.025-7.758,3.541-7.708,7.81l0,0v46.803
	c-0.05,4.293,3.415,7.784,7.708,7.809l0,0h46.276c4.293-0.024,7.733-3.516,7.708-7.809l0,0V242.031L315.19,242.031z M315.19,460.479
	c0.025-4.269-3.415-7.784-7.708-7.81l0,0h-46.276c-4.293,0.025-7.758,3.541-7.708,7.81l0,0v46.803
	c-0.05,4.269,3.415,7.784,7.708,7.784l0,0h46.276c4.293,0,7.733-3.516,7.708-7.784l0,0V460.479L315.19,460.479z M315.19,678.875
	c0.025-4.269-3.389-7.733-7.658-7.733c-0.026,0-0.026,0-0.05,0h-46.276c-4.268,0-7.708,3.415-7.708,7.684c0,0.05,0,0.05,0,0.05
	v46.803c-0.05,4.319,3.415,7.784,7.708,7.834l0,0h46.276c4.293-0.05,7.733-3.515,7.708-7.834l0,0v-46.552l0,0V678.875z
	 M777.418,241.781c0-4.294-3.464-7.784-7.733-7.81H384.516c-4.269,0.025-7.683,3.491-7.659,7.759c0,0.025,0,0.051,0,0.051v46.803
	c-0.024,4.269,3.39,7.758,7.659,7.809h385.169c4.27-0.024,7.733-3.516,7.733-7.809v-46.552l0,0V241.781z M777.418,460.227
	c0-4.294-3.464-7.783-7.733-7.809H384.516c-4.269,0.025-7.683,3.49-7.659,7.759c0,0.024,0,0.024,0,0.05v46.804
	c-0.024,4.269,3.39,7.733,7.659,7.834h385.169c4.27-0.051,7.733-3.565,7.733-7.834V460.227L777.418,460.227z M777.418,678.624
	c0-4.269-3.415-7.733-7.733-7.784l0,0H384.516c-4.244,0-7.659,3.415-7.659,7.684c0,0.051,0,0.051,0,0.101v46.803
	c-0.024,4.269,3.39,7.784,7.659,7.784h385.169c4.27,0,7.733-3.516,7.733-7.784v-46.301l0,0V678.624z"/>
</svg>
