<?xml version="1.0" encoding="utf-8"?>
<!-- Generator: Adobe Illustrator 18.0.0, SVG Export Plug-In . SVG Version: 6.00 Build 0)  -->
<!DOCTYPE svg PUBLIC "-//W3C//DTD SVG 1.1//EN" "http://www.w3.org/Graphics/SVG/1.1/DTD/svg11.dtd">
<svg version="1.1" id="图形" xmlns="http://www.w3.org/2000/svg" xmlns:xlink="http://www.w3.org/1999/xlink" x="0px" y="0px"
	 viewBox="0 0 100 100" enable-background="new 0 0 100 100" xml:space="preserve">
<g>
	<g>
		<path fill="#CCCCCC" d="M86.355,83.962c4.623-6.898,7.332-15.186,7.363-24.109c0.083-24.116-19.423-43.732-43.567-43.816
			C25.965,15.996,6.324,35.547,6.282,59.703c0,8.975,2.712,17.32,7.363,24.259L86.355,83.962L86.355,83.962z M39.017,63.225
			c0.981-1.863,18.284-26.539,20.116-27.811c0.477-0.343,1.051-0.52,1.637-0.509c1.5,0.03,2.691,1.267,2.662,2.765
			c-3.285,10.963-7.128,21.751-11.517,32.322c-1.466,2.091-4.162,2.929-6.557,2.038l-4.299-2.256
			C38.968,68.307,38.131,65.618,39.017,63.225z"/>
	</g>
</g>
</svg>
