<?xml version="1.0" encoding="utf-8"?>
<!-- Generator: Adobe Illustrator 16.0.0, SVG Export Plug-In . SVG Version: 6.00 Build 0)  -->
<!DOCTYPE svg PUBLIC "-//W3C//DTD SVG 1.1//EN" "http://www.w3.org/Graphics/SVG/1.1/DTD/svg11.dtd">
<svg version="1.1" id="图形" xmlns="http://www.w3.org/2000/svg" xmlns:xlink="http://www.w3.org/1999/xlink" x="0px" y="0px"
	 width="1000.637px" height="1000.678px" viewBox="15.167 -16.333 1000.637 1000.678"
	 enable-background="new 15.167 -16.333 1000.637 1000.678" xml:space="preserve">
<path id="fujian-nobg.svg" d="M162.046,857.948c-23.789-18.135-43.519-41.012-57.908-67.228
	c-27.595-50.294-34.159-109.483-18.255-164.635c8.293-28.506,22.566-54.995,41.83-77.637l319.075-379.177
	c21.555-25.264,47.46-46.471,76.492-62.607c64.646-37.168,140.729-49.015,213.629-33.286c41.17,8.953,79.658,27.362,112.477,53.772
	c32.623,24.333,59.073,56.024,77.172,92.512c15.961,32.819,25.089,68.55,26.76,105.039c1.553,34.799-3.42,69.579-14.604,102.552
	c-10.177,30.953-25.983,59.771-46.646,84.959l-283.284,336.3c-6.291,6.407-15.536,8.972-24.197,6.642
	c-9.398-0.855-18.37-4.154-26.1-9.555c-6.524-6.33-11.573-14.061-14.719-22.602c-4.467-7.537-4.04-17.052,1.048-24.197
	l282.393-335.35c15.186-18.234,27.304-38.857,35.771-61.054c18.448-47.11,15.689-99.873-7.535-144.807
	c-14.138-26.624-34.1-49.734-58.412-67.598c-22.604-18.041-48.975-30.682-77.171-36.995c-26.217-5.903-53.364-6.757-79.929-2.543
	c-25.439,4.059-49.985,12.312-72.707,24.43c-21.477,11.223-40.604,26.506-56.275,45.014L192.786,598.083
	c-13.749,15.729-24.081,34.14-30.313,54.102c-5.127,17.128-6.661,35.108-4.485,52.818c2.31,17.361,8.486,33.985,18.098,48.628
	c10.369,15.923,23.4,29.941,38.527,41.477c26.235,21.479,60.296,30.954,93.871,26.1c38.003-8.001,71.716-29.826,94.571-61.284
	l287.287-342.011c12-12.972,17.825-30.508,15.923-48.082c-1.514-15.69-9.437-30.06-21.864-39.77
	c-13.517-11.379-31.692-15.574-48.858-11.263c-16.002,3.417-30.45,11.962-41.092,24.351L333.729,653.35
	c-6.311,6.408-15.573,8.933-24.254,6.603c-19.264-0.854-35.924-13.672-41.77-32.002c-4.408-7.612-3.98-17.091,1.126-24.236
	l261.654-310.394c16.312-20.817,36.469-38.374,59.306-51.713c17.322-9.865,36.586-15.768,56.469-17.303
	c17.75-1.029,35.499,1.942,51.929,8.679c16.429,6.779,31.962,15.557,46.256,26.12c12.583,9.495,23.536,20.953,32.47,33.925
	c10.136,14.312,16.934,30.701,19.884,47.965c3.185,19.555,2.02,39.538-3.418,58.588c-7.533,24.896-20.585,47.732-38.294,66.801
	c-9.943,12.001-18.798,22.934-26.489,32.818c-6.602,8.544-12.854,16.157-18.718,22.875c-5.904,6.681-9.09,10.332-9.633,11.031
	L467.954,810.372c-19.089,23.147-41.945,42.915-67.617,58.489c-24.001,14.643-50.547,24.662-78.258,29.559
	c-27.148,4.66-54.976,3.884-81.813-2.331c-28.584-6.799-55.305-19.885-78.219-38.22l0,0V857.948z"/>
</svg>
