<?xml version="1.0" encoding="utf-8"?>
<!-- Generator: Adobe Illustrator 16.0.0, SVG Export Plug-In . SVG Version: 6.00 Build 0)  -->
<!DOCTYPE svg PUBLIC "-//W3C//DTD SVG 1.1//EN" "http://www.w3.org/Graphics/SVG/1.1/DTD/svg11.dtd">
<svg version="1.1" id="图形" xmlns="http://www.w3.org/2000/svg" xmlns:xlink="http://www.w3.org/1999/xlink" x="0px" y="0px"
	 width="1000.637px" height="1000.678px" viewBox="0 0 1000.637 1000.678" enable-background="new 0 0 1000.637 1000.678"
	 xml:space="preserve">
<g>
	<g>
		<path d="M821.086,92.088H179.55c-64.415,0-116.643,52.17-116.643,116.643v583.215c0,64.359,52.228,116.643,116.643,116.643
			h641.537c64.415,0,116.643-52.283,116.643-116.643V208.731C937.729,144.258,885.501,92.088,821.086,92.088z M354.515,616.981
			c-64.416,0-116.643-52.283-116.643-116.643c0-64.472,52.227-116.643,116.643-116.643c64.416,0,116.644,52.171,116.644,116.643
			C471.158,564.698,418.931,616.981,354.515,616.981z M821.086,267.052H704.444v466.572h116.643v58.322H529.479v-58.322h116.643
			V267.052H529.479v-58.321h291.606V267.052z"/>
	</g>
</g>
</svg>
