<?xml version="1.0" encoding="utf-8"?>
<!-- Generator: Adobe Illustrator 16.0.0, SVG Export Plug-In . SVG Version: 6.00 Build 0)  -->
<!DOCTYPE svg PUBLIC "-//W3C//DTD SVG 1.1//EN" "http://www.w3.org/Graphics/SVG/1.1/DTD/svg11.dtd">
<svg version="1.1" id="图形" xmlns="http://www.w3.org/2000/svg" xmlns:xlink="http://www.w3.org/1999/xlink" x="0px" y="0px"
	 width="1000.637px" height="1000.678px" viewBox="15.167 -16.333 1000.637 1000.678"
	 enable-background="new 15.167 -16.333 1000.637 1000.678" xml:space="preserve">
<path id="btn-pencil-b.svg" d="M78.272,753.898v167.316h167.255L78.272,753.898z M330.466,884.994l-209.329-205
	c-0.365-0.365-0.365-0.913,0-1.28l477.438-488.259c0.427-0.365,0.977-0.365,1.403,0l209.389,205.152
	c0.365,0.365,0.365,0.944,0.061,1.341c-0.061,0-0.061,0.031-0.061,0.031L331.869,885.239c-0.366,0.365-0.915,0.365-1.281,0
	c-0.061,0-0.061,0-0.061,0l0,0L330.466,884.994z M854.976,351.521l-209.085-205.03c-0.365-0.365-0.426-0.944-0.06-1.341l0.06-0.03
	l95.915-98.048c0.367-0.366,0.975-0.366,1.342,0l209.266,205.243c0.367,0.366,0.367,0.945,0.063,1.341
	c-0.063,0-0.063,0.031-0.063,0.031l-95.912,98.048c-0.305,0.367-0.916,0.396-1.281,0.031c-0.061,0-0.061-0.031-0.123-0.031l0,0
	L854.976,351.521z"/>
</svg>
