<?xml version="1.0" encoding="utf-8"?>
<!-- Generator: Adobe Illustrator 16.0.0, SVG Export Plug-In . SVG Version: 6.00 Build 0)  -->
<!DOCTYPE svg PUBLIC "-//W3C//DTD SVG 1.1//EN" "http://www.w3.org/Graphics/SVG/1.1/DTD/svg11.dtd">
<svg version="1.1" id="图形" xmlns="http://www.w3.org/2000/svg" xmlns:xlink="http://www.w3.org/1999/xlink" x="0px" y="0px"
	 width="1000.637px" height="1000.678px" viewBox="15.167 -16.333 1000.637 1000.678"
	 enable-background="new 15.167 -16.333 1000.637 1000.678" xml:space="preserve">
<path id="_联系人管理.svg" d="M593.988,601.745c49.049-47.507,78.329-111.7,82.102-179.852
	c35.71-1.249,77.691-127.934,24.605-131.945c41.712-284.111-438.084-357.948-362.174,0c-49.792-7.892-28.296,120.626,23.514,128.199
	c0.479,1.409,47.508,153.839,83.191,184.022C329.168,618.961,112.146,771.472,97.799,816.216c-25.241,29.864-25.241,73.545,0,103.41
	h846.646c12.858-30.927,9.353-66.213-9.246-94.059c-42.3-49.313-223.93-207.19-341.211-223.504l0,0V601.745z"/>
</svg>
