<?xml version="1.0" encoding="utf-8"?>
<!-- Generator: Adobe Illustrator 16.0.0, SVG Export Plug-In . SVG Version: 6.00 Build 0)  -->
<!DOCTYPE svg PUBLIC "-//W3C//DTD SVG 1.1//EN" "http://www.w3.org/Graphics/SVG/1.1/DTD/svg11.dtd">
<svg version="1.1" id="图形" xmlns="http://www.w3.org/2000/svg" xmlns:xlink="http://www.w3.org/1999/xlink" x="0px" y="0px"
	 width="1000.637px" height="1000.678px" viewBox="0 0 1000.637 1000.678" enable-background="new 0 0 1000.637 1000.678"
	 xml:space="preserve">
<path id="dianhua.svg" d="M62.708,500.342c0,241.639,195.912,437.608,437.611,437.608c241.699,0,437.611-195.972,437.611-437.608
	c0-241.762-195.912-437.614-437.611-437.614C258.62,62.728,62.708,258.58,62.708,500.342L62.708,500.342z M701.543,330.011
	c30.83,30.831,1.586,145.85-112.025,259.463C475.929,703.031,360.91,732.337,330.019,701.444
	c-26.681-26.74-73.446-59.223-12.485-108.182c60.928-48.842,77.809-25.032,105.466,2.809c19.23,19.288,68.009-21.002,110.165-63.13
	c42.127-42.126,82.236-90.844,63.066-110.133c-27.656-27.598-51.646-44.569-2.748-105.378
	c48.84-60.866,81.258-14.164,108.182,12.457l0,0L701.543,330.011z"/>
</svg>
