<?xml version="1.0" encoding="utf-8"?>
<!-- Generator: Adobe Illustrator 16.0.0, SVG Export Plug-In . SVG Version: 6.00 Build 0)  -->
<!DOCTYPE svg PUBLIC "-//W3C//DTD SVG 1.1//EN" "http://www.w3.org/Graphics/SVG/1.1/DTD/svg11.dtd">
<svg version="1.1" id="图形" xmlns="http://www.w3.org/2000/svg" xmlns:xlink="http://www.w3.org/1999/xlink" x="0px" y="0px"
	 width="1000.637px" height="1000.678px" viewBox="15.167 -16.333 1000.637 1000.678"
	 enable-background="new 15.167 -16.333 1000.637 1000.678" xml:space="preserve">
<path id="btn-tianjia-b.svg" d="M558.942,519.156h359.565c19.031,0.07,34.502-15.26,34.643-34.219l0,0
	c0-19.034-15.47-34.432-34.502-34.432H558.942c-5.063,0-9.161-4.064-9.161-9.197l0,0V82.529
	c0.181-18.89-14.612-34.644-33.502-35.571c-19.033-0.57-34.895,14.4-35.465,33.362c0,0.357-0.036,0.711-0.036,0.999v359.778
	c0,5.061-4.098,9.196-9.194,9.196l0,0h-357.89c-18.961-0.286-34.752,14.397-35.856,33.36c-0.607,18.962,14.293,34.86,33.29,35.503
	c0.357,0,0.748,0,1.105,0h359.135c5.063,0,9.161,4.131,9.197,9.123v360.135c-0.072,18.961,15.254,34.359,34.252,34.504
	c0.106,0,0.25,0,0.357,0l0,0c18.961,0,34.323-15.398,34.323-34.361V528.704c-0.213-5.133,3.742-9.406,8.804-9.549
	C558.515,519.156,558.799,519.156,558.942,519.156z"/>
</svg>
