<?xml version="1.0" encoding="utf-8"?>
<!-- Generator: Adobe Illustrator 16.0.0, SVG Export Plug-In . SVG Version: 6.00 Build 0)  -->
<!DOCTYPE svg PUBLIC "-//W3C//DTD SVG 1.1//EN" "http://www.w3.org/Graphics/SVG/1.1/DTD/svg11.dtd">
<svg version="1.1" id="图形" xmlns="http://www.w3.org/2000/svg" xmlns:xlink="http://www.w3.org/1999/xlink" x="0px" y="0px"
	 width="1000.637px" height="1000.678px" viewBox="15.167 -16.333 1000.637 1000.678"
	 enable-background="new 15.167 -16.333 1000.637 1000.678" xml:space="preserve">
<path id="btn-poweroff-b.svg" d="M749.381,173.562c26.884,19.137,51.316,41.577,72.903,66.638
	c21.131,24.605,39.471,51.602,54.678,80.307c15.264,28.934,26.883,59.633,34.629,91.413c7.86,32.01,11.731,64.873,11.676,97.794
	c0.398,55.133-10.649,109.695-32.407,160.387c-41.407,98.076-119.037,176.334-216.773,218.594
	c-101.267,43.401-215.917,43.401-317.128,0c-48.468-21.074-92.553-51.031-129.916-88.279
	c-37.305-37.363-66.979-81.675-87.483-130.43c-33.718-80.876-40.893-170.525-20.504-255.787
	c7.405-30.813,18.284-60.714,32.351-89.135c14.24-28.364,31.782-54.848,52.286-78.94c20.674-24.491,43.913-46.703,69.371-66.182
	c12.246-9.455,27.909-13.441,43.229-10.992c15.208,2.278,28.762,10.536,37.762,22.952c9.569,12.188,13.555,27.908,10.992,43.172
	c-2.106,15.378-10.366,29.275-22.838,38.616c-37.25,26.997-67.436,62.651-87.939,103.773
	c-20.334,41.122-30.756,86.458-30.472,132.308c-0.228,39.242,7.575,78.199,22.839,114.423
	c14.581,34.972,35.768,66.752,62.367,93.749c26.712,26.769,58.266,48.299,93.008,63.336c72.447,31.209,154.521,31.209,226.854,0
	c70.227-30.528,125.93-86.916,155.603-157.427c15.606-36.109,23.522-75.067,23.353-114.424
	c0.113-47.102-11.164-93.635-32.806-135.497c-21.53-42.033-53.197-78.143-92.041-104.969c-12.986-8.6-21.758-22.27-24.148-37.647
	c-2.849-15.378,0.569-31.326,9.568-44.083c8.714-12.644,22.211-21.074,37.362-23.352c15.321-2.848,31.097,0.626,43.742,9.683l0,0
	H749.381z M515.181,512.448c-15.377,0.341-30.187-5.811-40.836-16.974c-10.993-10.707-17.087-25.459-16.859-40.78V105.557
	c-0.172-15.492,5.923-30.415,16.859-41.293c10.479-11.391,25.345-17.712,40.836-17.484c15.663-0.342,30.756,6.037,41.464,17.484
	c10.936,10.936,17.029,25.801,16.858,41.293v349.137c0,31.895-25.857,57.754-57.752,57.866c-0.171,0-0.399,0-0.57,0l0,0V512.448z"/>
</svg>
