<?xml version="1.0" encoding="utf-8"?>
<!-- Generator: Adobe Illustrator 16.0.0, SVG Export Plug-In . SVG Version: 6.00 Build 0)  -->
<!DOCTYPE svg PUBLIC "-//W3C//DTD SVG 1.1//EN" "http://www.w3.org/Graphics/SVG/1.1/DTD/svg11.dtd">
<svg version="1.1" id="图形" xmlns="http://www.w3.org/2000/svg" xmlns:xlink="http://www.w3.org/1999/xlink" x="0px" y="0px"
	 width="1000.637px" height="1000.678px" viewBox="0 0 1000.637 1000.678" enable-background="new 0 0 1000.637 1000.678"
	 xml:space="preserve">
<path d="M500.319,62.787c-241.646,0-437.552,195.882-437.552,437.551c0,241.625,195.905,437.553,437.552,437.553
	c241.626,0,437.55-195.929,437.55-437.553C937.868,258.67,741.945,62.787,500.319,62.787z M500.319,154.903
	c78.207,0,150.328,25.996,208.225,69.799L224.686,708.56c-43.804-57.896-69.801-130.016-69.801-208.221
	C154.885,309.541,309.543,154.903,500.319,154.903z M500.319,845.775c-79.301,0-152.346-26.737-210.652-71.667l484.425-484.426
	c44.926,58.304,71.662,131.349,71.662,210.656C845.753,691.138,691.116,845.775,500.319,845.775z"/>
</svg>
