<?xml version="1.0" encoding="utf-8"?>
<!-- Generator: Adobe Illustrator 16.0.0, SVG Export Plug-In . SVG Version: 6.00 Build 0)  -->
<!DOCTYPE svg PUBLIC "-//W3C//DTD SVG 1.1//EN" "http://www.w3.org/Graphics/SVG/1.1/DTD/svg11.dtd">
<svg version="1.1" id="图形" xmlns="http://www.w3.org/2000/svg" xmlns:xlink="http://www.w3.org/1999/xlink" x="0px" y="0px"
	 width="1000.637px" height="1000.678px" viewBox="15.167 -16.333 1000.637 1000.678"
	 enable-background="new 15.167 -16.333 1000.637 1000.678" xml:space="preserve">
<g>
	<g>
		<path d="M773.453,355.024H257.516c-56.983,0-103.187,46.15-103.187,103.187v361.154c0,56.934,46.203,103.188,103.187,103.188
			h515.937c56.986,0,103.188-46.255,103.188-103.188V458.21C876.64,401.174,830.439,355.024,773.453,355.024z M604.869,664.081
			c-9.07,15.621-22.07,28.72-37.789,37.789v117.494H463.892V701.87c-49.353-28.518-66.256-91.7-37.764-140.976
			c28.493-49.378,91.6-66.307,140.951-37.789C616.457,551.625,633.335,614.703,604.869,664.081z"/>
	</g>
</g>
<g>
	<g>
		<path d="M515.486,45.459c-142.463,0-257.969,115.482-257.969,257.971c0,142.386,115.506,154.78,257.969,154.78
			c142.487,0,257.967-12.395,257.967-154.78C773.453,160.942,657.973,45.459,515.486,45.459z M515.486,406.616
			c-113.97,0-206.374,10.783-206.374-103.187c0-113.971,92.404-206.374,206.374-206.374S721.86,189.459,721.86,303.43
			C721.86,417.4,629.456,406.616,515.486,406.616z"/>
	</g>
</g>
</svg>
