<?xml version="1.0" encoding="utf-8"?>
<!-- Generator: Adobe Illustrator 16.0.0, SVG Export Plug-In . SVG Version: 6.00 Build 0)  -->
<!DOCTYPE svg PUBLIC "-//W3C//DTD SVG 1.1//EN" "http://www.w3.org/Graphics/SVG/1.1/DTD/svg11.dtd">
<svg version="1.1" id="图形" xmlns="http://www.w3.org/2000/svg" xmlns:xlink="http://www.w3.org/1999/xlink" x="0px" y="0px"
	 width="1000.637px" height="1000.678px" viewBox="0 0 1000.637 1000.678" enable-background="new 0 0 1000.637 1000.678"
	 xml:space="preserve">
<path d="M500.319,500.34c-35.845,0-70.683,4.306-104.025,12.426L329.168,329.63c28.432-28.319,46.029-67.507,46.029-110.813
	c0-86.387-70.011-156.403-156.402-156.403c-86.386,0-156.398,70.016-156.396,156.403c0,83.812,65.902,152.21,148.724,156.21
	l66.96,185.794C148.991,636.979,62.395,777.474,62.395,938.264h312.803c0-69.155,56.021-125.122,125.122-125.122
	c69.098,0,125.119,55.967,125.119,125.122h312.804C938.242,696.33,742.192,500.34,500.319,500.34z"/>
</svg>
