<?xml version="1.0" encoding="utf-8"?>
<!-- Generator: Adobe Illustrator 16.0.0, SVG Export Plug-In . SVG Version: 6.00 Build 0)  -->
<!DOCTYPE svg PUBLIC "-//W3C//DTD SVG 1.1//EN" "http://www.w3.org/Graphics/SVG/1.1/DTD/svg11.dtd">
<svg version="1.1" id="图形" xmlns="http://www.w3.org/2000/svg" xmlns:xlink="http://www.w3.org/1999/xlink" x="0px" y="0px"
	 width="1000.637px" height="1000.678px" viewBox="15.167 -16.333 1000.637 1000.678"
	 enable-background="new 15.167 -16.333 1000.637 1000.678" xml:space="preserve">
<path id="回收站.svg" d="M424.303,354.655l-160.608-90.303c30.672-61.163,71.432-116.718,120.524-164.37
	c7.521-7.566,17.16-12.633,27.698-14.435h12.115l8.513,0.383c29.546,11.98,54.092,33.689,69.585,61.568
	c11.125,18.623,21.754,37.472,31.933,56.523L424.348,354.655l0,0H424.303z M515.777,139.053
	c26.438,43.845,50.128,89.289,71.026,136.04l-85.213,48.011l247.036,23.06l103.951-221.051l-85.979,48.484
	c-19.277-45.625-54.138-82.916-98.41-105.143l-243.436,1.148c32.293-1.216,62.108,27.294,91.023,69.18l0,0V139.053z
	 M704.491,454.461l0.991-1.329v3.311l63.412,132.301c25.673,0.9,51.345,1.037,77.018,0.721c33.6,1.262,66.388-10.584,91.43-33.059
	c0.584-0.811,1.034-1.666,1.531-2.521l6.216-10.99c0.043-4.953-0.721-9.908-2.162-14.637
	c-18.466-65.622-47.968-127.641-87.152-183.421c-53.1,31.054-106.156,62.063-159.166,93.028l7.837,16.597l0,0H704.491z
	 M846.632,605.228c-52.019,1.082-104.041-0.9-155.79-6.035l-1.034-96.248L548.25,702.423l145.746,197.133l-0.944-97.148
	c49.587,6.035,99.714-5.359,141.827-32.248c39.361-69.449,78.772-138.898,118.227-208.348
	c-14.729,27.969-54.813,39.453-106.473,43.551l0,0V605.228z M330.083,619.056c-11.125,20.941-21.574,42.156-31.663,63.729
	c-15.809,29.186-19.142,63.414-9.232,95.078l1.711,2.387l7.702,10.539c6.215,4.324,13.377,7.115,20.898,8.107
	c68.233,12.07,137.999,12.791,206.503,2.07c-5.676-60.217-11.396-120.434-17.115-180.695l-178.938-1.215l0,0H330.083z
	 M283.512,676.57c21.394-46.48,45.579-91.609,72.422-135.162l89.132,40.625L322.291,370.845L77.865,414.804l89.942,40.895
	c-26.844,41.166-37.968,90.664-31.257,139.351c47.021,64.9,93.996,129.711,141.062,194.387
	c-19.456-25.088-12.836-65.441,5.675-112.867l0,0H283.512z"/>
</svg>
