<?xml version="1.0" encoding="utf-8"?>
<!-- Generator: Adobe Illustrator 16.0.0, SVG Export Plug-In . SVG Version: 6.00 Build 0)  -->
<!DOCTYPE svg PUBLIC "-//W3C//DTD SVG 1.1//EN" "http://www.w3.org/Graphics/SVG/1.1/DTD/svg11.dtd">
<svg version="1.1" id="图形" xmlns="http://www.w3.org/2000/svg" xmlns:xlink="http://www.w3.org/1999/xlink" x="0px" y="0px"
	 width="1000.637px" height="1000.678px" viewBox="0 0 1000.637 1000.678" enable-background="new 0 0 1000.637 1000.678"
	 xml:space="preserve">
<path id="btn-huifu-b.svg" d="M952.426,519.386v0.981c-19.842,241.053-231.314,420.375-472.31,400.414
	c-89.783-7.352-175.035-42.265-244.24-99.832c-12.8-10.289-31.295-9.185-42.809,2.576l-61.183,60.999
	c-12.616,12.61-33.134,12.61-45.749,0c-6.003-6.124-9.371-14.209-9.433-22.783v-216.07c0-17.883,14.454-32.336,32.337-32.336
	c0,0,0,0,0.062,0h216.313c17.883,0,32.337,14.453,32.396,32.214c0,8.575-3.43,16.902-9.492,22.905l-40.299,40.297
	c-12.678,12.738-12.678,33.316,0.063,46.054c1.041,0.981,2.144,1.96,3.307,2.822c58.732,44.586,130.449,68.594,204.188,68.594
	c175.83,0.488,323.308-132.412,340.946-307.324c0.117-26.518,21.738-47.892,48.195-47.77
	C931.24,471.311,952.612,492.93,952.426,519.386L952.426,519.386z M954.204,106.053v216.129c0,17.761-14.454,32.276-32.274,32.276
	c-0.061,0-0.061,0-0.061,0H705.617c-17.823-0.062-32.276-14.515-32.276-32.337c0-8.513,3.432-16.719,9.433-22.782l51.075-51.017
	c12.682-12.616,12.739-33.133,0.123-45.811c-1.469-1.47-3.063-2.818-4.776-3.919C572.349,94.355,360.752,137.104,256.637,294.01
	c-30.867,46.484-49.853,99.828-55.303,155.438c-0.184,26.457-21.864,47.771-48.383,47.647
	c-26.457-0.245-47.831-21.863-47.647-48.383v-1.347c18.924-239.954,228.745-419.152,468.76-400.289
	c84.576,6.675,165.419,37.848,232.543,89.783c12.799,9.555,30.681,8.208,41.892-3.185l50.522-50.22
	c12.619-12.616,33.137-12.616,45.75,0c6.005,6.003,9.433,14.086,9.495,22.6h-0.063V106.053z"/>
</svg>
