<?xml version="1.0" encoding="utf-8"?>
<!-- Generator: Adobe Illustrator 16.0.0, SVG Export Plug-In . SVG Version: 6.00 Build 0)  -->
<!DOCTYPE svg PUBLIC "-//W3C//DTD SVG 1.1//EN" "http://www.w3.org/Graphics/SVG/1.1/DTD/svg11.dtd">
<svg version="1.1" id="图形" xmlns="http://www.w3.org/2000/svg" xmlns:xlink="http://www.w3.org/1999/xlink" x="0px" y="0px"
	 width="1000.637px" height="1000.678px" viewBox="15.167 -16.333 1000.637 1000.678"
	 enable-background="new 15.167 -16.333 1000.637 1000.678" xml:space="preserve">
<path id="椭圆_5" d="M416.191,285.881c175.472-0.768,318.3,140.843,319.07,316.294c0.811,175.449-140.822,318.32-316.273,319.089
	S100.667,780.442,99.898,604.992c0-0.49,0-0.982,0-1.451C99.535,428.475,241.146,286.265,416.191,285.881z M416.191,86.498v516.723
	h475.091L416.191,86.498z"/>
<path id="椭圆_5_拷贝" d="M455.858,244.868c175.813-1.152,319.327,140.438,320.479,316.294
	C777.533,737.018,635.9,880.486,460.022,881.64c-175.813,1.152-319.304-140.438-320.457-316.272c0-0.704,0-1.408,0-2.092
	C138.968,387.996,280.579,245.445,455.858,244.868L455.858,244.868z M455.858,46.745v516.744H930.65L455.858,46.745z"/>
</svg>
