<?xml version="1.0" encoding="utf-8"?>
<!-- Generator: Adobe Illustrator 16.0.0, SVG Export Plug-In . SVG Version: 6.00 Build 0)  -->
<!DOCTYPE svg PUBLIC "-//W3C//DTD SVG 1.1//EN" "http://www.w3.org/Graphics/SVG/1.1/DTD/svg11.dtd">
<svg version="1.1" id="图形" xmlns="http://www.w3.org/2000/svg" xmlns:xlink="http://www.w3.org/1999/xlink" x="0px" y="0px"
	 width="1000.637px" height="1000.678px" viewBox="15.167 -16.333 1000.637 1000.678"
	 enable-background="new 15.167 -16.333 1000.637 1000.678" xml:space="preserve">
<g>
	<g>
		<g>
			<path d="M187.26,483.894c0.117-18.038,1.475-35.776,3.984-53.14H77.26l115.651,119.144
				C189.194,528.45,187.253,506.398,187.26,483.894z"/>
			<path d="M300.823,537.284l107.761-106.53H301.877c-3.75,17.826-5.775,36.291-5.886,55.214
				C295.988,503.51,297.666,520.658,300.823,537.284z"/>
			<path d="M239.507,597.9l-46.595-48.002c0.003,0.016,0.005,0.032,0.008,0.048l46.645,48.068l61.476-59.538
				c-0.077-0.396-0.142-0.796-0.217-1.191L239.507,597.9z"/>
			<path d="M575.125,100.813c-194.844-1.161-356.778,142.384-383.882,329.941h110.634
				c26.316-125.073,137.68-218.646,270.481-217.839v0.058c150.833,1.815,271.583,125.562,269.738,276.337
				c-1.786,150.891-125.533,271.584-276.31,269.739c-86.8-1.003-163.722-42.429-212.998-106.261l-77.037,76.15
				c69.333,83.331,173.376,136.827,290.15,138.237c211.642,2.539,385.243-166.916,387.778-378.558
				C956.219,276.978,786.708,103.377,575.125,100.813z"/>
			<path d="M331.035,509.427l-29.995,29.049c8.25,42.427,26.31,81.357,51.75,114.313l38.388-37.947L331.035,509.427z"/>
			<path d="M77.26,430.754l31.037,363.106l122.42-20.403l45.035-44.518c-41.928-50.394-71.159-111.697-82.833-178.994L77.26,430.754
				z"/>
		</g>
	</g>
</g>
</svg>
