<?xml version="1.0" encoding="utf-8"?>
<!-- Generator: Adobe Illustrator 16.0.0, SVG Export Plug-In . SVG Version: 6.00 Build 0)  -->
<!DOCTYPE svg PUBLIC "-//W3C//DTD SVG 1.1//EN" "http://www.w3.org/Graphics/SVG/1.1/DTD/svg11.dtd">
<svg version="1.1" id="图形" xmlns="http://www.w3.org/2000/svg" xmlns:xlink="http://www.w3.org/1999/xlink" x="0px" y="0px"
	 width="1000.637px" height="1000.678px" viewBox="0 0 1000.637 1000.678" enable-background="new 0 0 1000.637 1000.678"
	 xml:space="preserve">
<path id="椭圆_6" d="M514.663,45.545c241.684,0,437.617,195.935,437.617,437.617c0,241.682-195.935,437.617-437.617,437.617
	c-241.682,0-437.616-195.937-437.616-437.617C77.046,241.479,272.981,45.545,514.663,45.545z"/>
<g transform="translate(-301 -159)">
	<path id="形状_8_拷贝_4" fill="#BDBDBD" d="M570.26,602.158L570.26,602.158c6.776,0,13.269,2.707,18.01,7.529l136.451,139.359
		c9.83,9.932,25.845,10.014,35.775,0.204c0.081-0.042,0.163-0.122,0.245-0.204l282.282-286.798c4.762-4.823,11.272-7.55,18.071-7.55
		l0,0c14.242,0.204,25.64,11.925,25.438,26.211c-0.084,6.675-2.771,13.044-7.451,17.807L760.741,821.985
		c-9.585,9.932-25.418,10.215-35.369,0.649c-0.224-0.244-0.427-0.447-0.651-0.649L552.27,646.156
		c-10.053-10.134-9.951-26.496,0.183-36.53C557.216,604.926,563.585,602.24,570.26,602.158z"/>
</g>
<g transform="translate(-301 -159)">
	<path id="形状_8_拷贝_4_1_" fill="none" stroke="#FFFFFF" d="M570.26,602.158L570.26,602.158c6.776,0,13.269,2.707,18.01,7.529
		l136.451,139.36c9.83,9.932,25.844,10.014,35.775,0.204c0.081-0.042,0.163-0.122,0.245-0.204l282.282-286.798
		c4.762-4.823,11.272-7.55,18.071-7.55l0,0c14.242,0.204,25.64,11.925,25.438,26.211c-0.084,6.675-2.771,13.044-7.451,17.807
		L760.741,821.985c-9.585,9.932-25.418,10.215-35.369,0.649c-0.224-0.244-0.427-0.447-0.651-0.649L552.27,646.156
		c-10.053-10.134-9.951-26.496,0.183-36.53C557.216,604.926,563.585,602.24,570.26,602.158z"/>
</g>
</svg>
