<?xml version="1.0" encoding="utf-8"?>
<!-- Generator: Adobe Illustrator 16.0.0, SVG Export Plug-In . SVG Version: 6.00 Build 0)  -->
<!DOCTYPE svg PUBLIC "-//W3C//DTD SVG 1.1//EN" "http://www.w3.org/Graphics/SVG/1.1/DTD/svg11.dtd">
<svg version="1.1" id="图形" xmlns="http://www.w3.org/2000/svg" xmlns:xlink="http://www.w3.org/1999/xlink" x="0px" y="0px"
	 width="1000.637px" height="1000.678px" viewBox="15.167 -16.333 1000.637 1000.678"
	 enable-background="new 15.167 -16.333 1000.637 1000.678" xml:space="preserve">
<path id="topbar-tongzhi.svg" d="M844.925,758.329H185.988c-25.567,2.613-48.377-16.079-50.962-41.646
	c-2.557-25.566,16.078-48.406,41.673-50.963c3.097-0.34,6.193-0.34,9.29,0c29.004-6.363,49.6-32.156,49.458-61.814V310.544
	c4.119-123.316,107.294-220.043,230.611-216.18c1.334-27.328,24.544-48.378,51.871-47.071c25.453,1.25,45.821,21.59,47.07,47.071
	c123.287-3.863,226.463,92.864,230.554,216.18v293.363c-0.113,29.658,20.453,55.451,49.429,61.814
	c25.566-2.557,48.406,16.079,50.963,41.646c2.557,25.623-16.078,48.406-41.646,50.963c-3.124,0.341-6.249,0.341-9.317,0l0,0H844.925
	z M515.457,920.705c-77.495,2.386-142.32-58.406-144.934-135.901h289.925C657.833,862.299,592.953,923.148,515.457,920.705
	L515.457,920.705z"/>
</svg>
