<?xml version="1.0" encoding="utf-8"?>
<!-- Generator: Adobe Illustrator 16.0.0, SVG Export Plug-In . SVG Version: 6.00 Build 0)  -->
<!DOCTYPE svg PUBLIC "-//W3C//DTD SVG 1.1//EN" "http://www.w3.org/Graphics/SVG/1.1/DTD/svg11.dtd">
<svg version="1.1" id="图形" xmlns="http://www.w3.org/2000/svg" xmlns:xlink="http://www.w3.org/1999/xlink" x="0px" y="0px"
	 width="1000.637px" height="1000.678px" viewBox="15.167 -16.333 1000.637 1000.678"
	 enable-background="new 15.167 -16.333 1000.637 1000.678" xml:space="preserve">
<path id="leftbar-yunanquan.svg" d="M523.976,919.424c-6.481,1.155-13.113,1.155-19.596,0
	c-14.168-2.562-348.58-67.576-348.58-572.51V210.305c0-15.173,6.381-29.643,17.535-39.892c10.299-9.497,23.814-14.771,37.832-14.771
	h3.618c0.904,0,9.747,0.652,23.665,0.652c37.48,0.201,74.811-3.818,111.337-11.907c50.694-18.59,96.465-48.484,133.794-87.473
	c18.641-12.259,42.757-12.259,61.396,0c40.193,36.979,86.518,66.622,136.961,87.473c36.325,8.088,73.402,12.108,110.584,11.907
	c13.866,0,22.81-0.552,23.563-0.652h3.818c13.968,0,27.433,5.274,37.683,14.72c11.204,10.25,17.584,24.77,17.584,39.943v136.608
	C875.019,851.848,538.144,916.863,523.976,919.424z M831.51,270.646c-0.152-11.958-5.678-23.212-15.073-30.597
	c-9.195-7.386-20.651-11.355-32.407-11.305h-3.316c-0.651,0-8.239,0.502-20.247,0.502c-31.903,0.151-63.707-2.914-94.959-9.144
	c-42.704-15.625-82.496-38.334-117.666-67.124c-16.33-9.345-36.426-9.345-52.755,0c-32.909,30.547-72.098,53.458-114.804,67.174
	c-31.501,6.23-63.556,9.294-95.661,9.144c-11.958,0-19.544-0.352-20.348-0.502h-3.065c-11.806-0.051-23.313,3.969-32.506,11.355
	c-9.345,7.385-14.872,18.639-15.073,30.547v104.855c0,387.569,287.286,437.309,299.494,439.471c5.526,0.805,11.204,0.805,16.731,0
	c12.208-1.961,301.604-51.901,301.604-439.471V270.697L831.51,270.646z M528.648,763.623c-4.622,0.755-9.395,0.755-14.018,0
	c-10.299-1.657-249.553-43.911-249.553-371.792v-88.778c0.15-9.999,4.773-19.444,12.561-25.724c7.586-6.23,17.183-9.646,27.03-9.546
	h2.663c0.603,0,6.933,0.402,16.881,0.402c26.78,0.101,53.458-2.462,79.735-7.737c35.672-11.656,68.33-31.101,95.661-56.825
	c6.682-3.918,14.269-5.978,22.056-5.928c7.688-0.05,15.324,2.01,21.956,5.979c29.241,24.217,62.401,43.359,97.972,56.573
	c26.077,5.274,52.605,7.837,79.133,7.737c9.998,0,16.329-0.352,16.882-0.402h2.763c9.848-0.1,19.393,3.316,26.98,9.546
	c7.838,6.28,12.46,15.726,12.61,25.724v88.728C779.96,719.613,538.797,761.865,528.648,763.623z"/>
</svg>
