<?xml version="1.0" encoding="utf-8"?>
<!-- Generator: Adobe Illustrator 16.0.0, SVG Export Plug-In . SVG Version: 6.00 Build 0)  -->
<!DOCTYPE svg PUBLIC "-//W3C//DTD SVG 1.1//EN" "http://www.w3.org/Graphics/SVG/1.1/DTD/svg11.dtd">
<svg version="1.1" id="图形" xmlns="http://www.w3.org/2000/svg" xmlns:xlink="http://www.w3.org/1999/xlink" x="0px" y="0px"
	 width="1000.637px" height="1000.678px" viewBox="15.167 -16.333 1000.637 1000.678"
	 enable-background="new 15.167 -16.333 1000.637 1000.678" xml:space="preserve">
<path id="btn-safe-b.svg" d="M866.335,170.085c-10.662-9.485-24.399-14.719-38.659-14.686h-3.924c-0.787,0-9.944,0.588-24.141,0.588
	c-38.135,0.23-76.076-3.761-113.364-11.905c-51.546-20.639-99.167-50.106-140.639-87.099c-19.2-12.266-43.797-12.266-62.961,0
	c-38.499,39.149-85.367,69.013-137.078,87.427c-37.515,8.144-75.814,12.134-114.181,11.938c-14.294,0-23.386-0.558-24.269-0.622
	h-3.729c-14.325,0-28.127,5.233-38.79,14.751c-11.48,10.205-18.022,24.825-17.956,40.196v136.488
	c0,504.642,342.903,569.4,357.425,572.149c3.337,0.651,6.673,0.915,10.041,0.915c3.467-0.264,6.901-0.655,10.271-1.438
	c14.587-2.617,359.943-67.508,359.943-572.215V209.99c0.065-15.374-6.543-29.993-17.989-40.198l0,0V170.085z"/>
</svg>
