<?xml version="1.0" encoding="utf-8"?>
<!-- Generator: Adobe Illustrator 16.0.0, SVG Export Plug-In . SVG Version: 6.00 Build 0)  -->
<!DOCTYPE svg PUBLIC "-//W3C//DTD SVG 1.1//EN" "http://www.w3.org/Graphics/SVG/1.1/DTD/svg11.dtd">
<svg version="1.1" id="图形" xmlns="http://www.w3.org/2000/svg" xmlns:xlink="http://www.w3.org/1999/xlink" x="0px" y="0px"
	 width="1000.637px" height="1000.678px" viewBox="15.167 -16.333 1000.637 1000.678"
	 enable-background="new 15.167 -16.333 1000.637 1000.678" xml:space="preserve">
<path id="search-large-blue.svg" d="M441.969,792.507c-199.574,1.618-362.692-158.81-364.331-358.383
	C75.979,234.55,236.427,71.432,436.001,69.793c199.593-1.659,362.692,158.789,364.352,358.362c0,0.992,0,1.983,0,2.974
	C800.837,629.773,640.612,791.374,441.969,792.507L441.969,792.507z M441.969,122.676
	c-170.36-1.396-309.627,135.585-311.023,305.966c-1.396,170.381,135.604,309.608,305.966,311.024
	c170.36,1.375,309.627-135.626,311.004-305.966c0.039-0.87,0.039-1.72,0.039-2.57C748.482,261.537,611.56,123.545,441.969,122.676
	L441.969,122.676z M900.857,898.231c-12.623,0-24.762-4.572-34.23-12.905l-192.352-167.43
	c-21.889-19.178-24.276-52.437-5.381-74.608c18.652-21.89,51.506-24.52,73.438-5.867c0.16,0.121,0.324,0.282,0.525,0.445
	l192.311,167.507c21.93,19.181,24.357,52.439,5.422,74.53C930.636,891.555,916.152,898.271,900.857,898.231L900.857,898.231z"/>
</svg>
