<?xml version="1.0" encoding="utf-8"?>
<!-- Generator: Adobe Illustrator 16.0.0, SVG Export Plug-In . SVG Version: 6.00 Build 0)  -->
<!DOCTYPE svg PUBLIC "-//W3C//DTD SVG 1.1//EN" "http://www.w3.org/Graphics/SVG/1.1/DTD/svg11.dtd">
<svg version="1.1" id="图形" xmlns="http://www.w3.org/2000/svg" xmlns:xlink="http://www.w3.org/1999/xlink" x="0px" y="0px"
	 width="1000.637px" height="1000.678px" viewBox="15.167 -16.333 1000.637 1000.678"
	 enable-background="new 15.167 -16.333 1000.637 1000.678" xml:space="preserve">
<g>
	<path id="椭圆_8" d="M515.485,104.903c241.609,0,437.427,56.729,437.427,126.671c0,69.971-195.817,126.672-437.427,126.672
		c-241.582,0-437.427-56.701-437.427-126.672C78.058,161.632,273.903,104.903,515.485,104.903z"/>
	<path id="椭圆_8_拷贝" d="M515.485,358.246c241.609,0,437.427,56.301,437.427,125.76c0,69.487-195.817,125.761-437.427,125.761
		c-241.582,0-437.427-56.273-437.427-125.761C78.058,414.547,273.903,358.246,515.485,358.246z"/>
	<path id="椭圆_8_拷贝_2" d="M515.485,609.767c241.609,0,437.427,56.729,437.427,126.671S757.094,863.109,515.485,863.109
		c-241.582,0-437.427-56.729-437.427-126.671S273.903,609.767,515.485,609.767z"/>
</g>
</svg>
