<?xml version="1.0" encoding="utf-8"?>
<!-- Generator: Adobe Illustrator 16.0.0, SVG Export Plug-In . SVG Version: 6.00 Build 0)  -->
<!DOCTYPE svg PUBLIC "-//W3C//DTD SVG 1.1//EN" "http://www.w3.org/Graphics/SVG/1.1/DTD/svg11.dtd">
<svg version="1.1" id="图形" xmlns="http://www.w3.org/2000/svg" xmlns:xlink="http://www.w3.org/1999/xlink" x="0px" y="0px"
	 width="1000.637px" height="1000.678px" viewBox="15.167 -16.333 1000.637 1000.678"
	 enable-background="new 15.167 -16.333 1000.637 1000.678" xml:space="preserve">
<path id="message-noshoucang.svg" d="M542.885,65.292L645.487,283.1c9.541,20.813,28.835,35.498,51.434,39.149L926.11,357.16
	c17.534,3.251,29.102,20.094,25.851,37.604c-1.228,6.449-4.319,12.365-8.955,16.975L776.978,581.284
	c-16.203,16.843-23.452,40.295-19.614,63.32l39.229,239.423c3.411,16.63-7.249,32.833-23.878,36.296
	c-6.878,1.438-14.02,0.479-20.256-2.718l-205.203-113.05c-19.773-10.979-43.785-10.979-63.533,0l-205.23,113.05
	c-15.083,7.675-33.606,1.705-41.334-13.378c-3.198-6.236-4.184-13.378-2.745-20.2l39.175-239.423
	c3.864-23.025-3.411-46.478-19.587-63.32L87.973,411.739c-12.632-12.552-12.686-32.992-0.133-45.625
	c4.61-4.61,10.526-7.755,16.949-8.954l229.214-34.911c22.599-3.678,41.894-18.335,51.407-39.149L488.04,65.292
	c6.342-15.164,23.772-22.279,38.935-15.937C534.144,52.393,539.874,58.096,542.885,65.292z"/>
</svg>
