<?xml version="1.0" encoding="utf-8"?>
<!-- Generator: Adobe Illustrator 16.0.0, SVG Export Plug-In . SVG Version: 6.00 Build 0)  -->
<!DOCTYPE svg PUBLIC "-//W3C//DTD SVG 1.1//EN" "http://www.w3.org/Graphics/SVG/1.1/DTD/svg11.dtd">
<svg version="1.1" id="图形" xmlns="http://www.w3.org/2000/svg" xmlns:xlink="http://www.w3.org/1999/xlink" x="0px" y="0px"
	 width="1000.637px" height="1000.678px" viewBox="0 0 1000.637 1000.678" enable-background="new 0 0 1000.637 1000.678"
	 xml:space="preserve">
<path id="单排.svg" d="M255.558,893.178L255.558,893.178c0.191-11.773,5.035-23.023,13.673-31.144l335.357-330.563
	c17.188-16.711,17.567-44.246,0.761-61.43c-0.283-0.286-0.477-0.476-0.761-0.759L269.23,138.767
	c-8.831-8.357-13.769-20.13-13.673-32.095l0,0c0.762-25.065,21.648-44.625,46.716-43.865c11.201,0.379,22.026,4.747,30.101,12.723
	l399.541,393.753c17.281,16.803,17.564,44.338,0.76,61.429c-0.188,0.285-0.38,0.569-0.76,0.76L332.375,925.27
	c-18.137,17.378-46.813,16.712-64.187-1.375C260.212,915.585,255.75,904.667,255.558,893.178z"/>
</svg>
