<?xml version="1.0" encoding="utf-8"?>
<!-- Generator: Adobe Illustrator 16.0.0, SVG Export Plug-In . SVG Version: 6.00 Build 0)  -->
<!DOCTYPE svg PUBLIC "-//W3C//DTD SVG 1.1//EN" "http://www.w3.org/Graphics/SVG/1.1/DTD/svg11.dtd">
<svg version="1.1" id="图形" xmlns="http://www.w3.org/2000/svg" xmlns:xlink="http://www.w3.org/1999/xlink" x="0px" y="0px"
	 width="1000.637px" height="1000.678px" viewBox="0 0 1000.637 1000.678" enable-background="new 0 0 1000.637 1000.678"
	 xml:space="preserve">
<path id="单排.svg" d="M745.08,107.499L745.08,107.499c-0.191,11.774-5.035,23.024-13.673,31.144l-335.36,330.562
	c-17.188,16.711-17.566,44.247-0.76,61.431c0.284,0.286,0.477,0.477,0.76,0.759l335.359,330.518
	c8.831,8.356,13.769,20.13,13.673,32.095l0,0c-0.762,25.065-21.648,44.625-46.716,43.865c-11.202-0.379-22.027-4.747-30.102-12.723
	l-399.54-393.754c-17.281-16.804-17.565-44.34-0.76-61.431c0.19-0.285,0.38-0.569,0.76-0.76L668.263,75.407
	c18.138-17.377,46.813-16.711,64.188,1.376C740.424,85.091,744.888,96.009,745.08,107.499z"/>
</svg>
