<?xml version="1.0" encoding="utf-8"?>
<!-- Generator: Adobe Illustrator 16.0.0, SVG Export Plug-In . SVG Version: 6.00 Build 0)  -->
<!DOCTYPE svg PUBLIC "-//W3C//DTD SVG 1.1//EN" "http://www.w3.org/Graphics/SVG/1.1/DTD/svg11.dtd">
<svg version="1.1" id="图形" xmlns="http://www.w3.org/2000/svg" xmlns:xlink="http://www.w3.org/1999/xlink" x="0px" y="0px"
	 width="1000.637px" height="1000.678px" viewBox="15.167 -16.333 1000.637 1000.678"
	 enable-background="new 15.167 -16.333 1000.637 1000.678" xml:space="preserve">
<path id="btn-yingpan-b.svg" d="M194.106,576.442h643.032c52.454-0.366,98.673,34.604,112.612,85.226h3.73L846.737,165.054
	c-12.044-52.088-58.874-88.708-112.308-87.975H296.723c-53.463-0.642-100.172,36.04-112.185,88.159L77.489,661.849h3.606
	C95.066,611.045,141.437,576.014,194.106,576.442z M798.5,890.928H240.112c-72.325,1.039-131.902-56.49-133.339-128.875l0,0
	c1.437-72.264,61.014-129.854,133.339-128.815H798.5c72.325-1.039,131.934,56.552,133.399,128.815l0,0
	C930.433,834.438,870.825,892.029,798.5,890.928z"/>
</svg>
