<?xml version="1.0" encoding="utf-8"?>
<!-- Generator: Adobe Illustrator 16.0.0, SVG Export Plug-In . SVG Version: 6.00 Build 0)  -->
<!DOCTYPE svg PUBLIC "-//W3C//DTD SVG 1.1//EN" "http://www.w3.org/Graphics/SVG/1.1/DTD/svg11.dtd">
<svg version="1.1" id="图形" xmlns="http://www.w3.org/2000/svg" xmlns:xlink="http://www.w3.org/1999/xlink" x="0px" y="0px"
	 width="1000.637px" height="1000.678px" viewBox="0 0 1000.637 1000.678" enable-background="new 0 0 1000.637 1000.678"
	 xml:space="preserve">
<path id="suse.svg" d="M289.536,755.774c-41.725-5.858-41.725-53.152-40.094-84.808c-0.504-13.269,0.212-26.577,2.114-39.729
	c32.24-27.816,50.919,18.699,42.249,46.398c1.998,11.291-3.822,25.684,2.891,34.995c8.632,12.686,25.974,4.81,39.087,6.982
	c12.976-1.126,28.843,4.578,36.681-8.652c1.863-27.271-3.763-56.177,4.695-82.479c43.896-24.637,43.683,37.593,39.727,64.634
	c0.504,18.736-0.156,37.477-1.979,56.137c-19.494,22.772-34.528-6.828-51.482-6.169c-22.347,12.88-48.572,17.343-73.945,12.57l0,0
	L289.536,755.774z M72.184,752.514c-5.044-8.962-12.57-39.416,7.681-32.781h88.979c31.58-36.119-26.266-42.172-52.666-37.09
	c-26.846,2.562-50.667-17.107-53.228-43.955c-0.698-7.293,0.251-14.625,2.793-21.492c5.936-34.606,45.158-41.356,75.088-37.671
	c25.044,1.706,75.789-12.261,65.546,28.515c1.165,13.189-21.532,3.104-30.648,6.246c-24.305,2.134-74.371-10.592-66.341,28.244
	c29.427,18.62,76.621-6.362,103.293,22.54c14.977,27.775,12.551,72.817-21.046,87.096c-15.634,7.488-34.683,1.979-51.772,3.997
	l-63.179,0.581c-1.512-1.396-3.064-2.793-4.616-4.19l0,0L72.184,752.514z M454.399,752.514c-5.043-8.962-12.59-39.416,7.643-32.781
	h89.015c30.377-33.869-22.075-42.521-48.281-37.206c-26.378,4.852-51.693-12.606-56.542-38.988
	c-1.494-8.07-0.912-16.372,1.688-24.17c4.189-39.224,49.931-43.296,81.758-40.31c17.828-0.66,35.654-0.232,53.422,1.279
	c9.935,6.245,16.897,38.523-0.929,33.792c-28.089-1.436-56.216-0.271-84.07,3.452c-28.264,43.723,43.704,29.446,68.668,33.791
	c40.074,1.592,43.296,52.142,30.416,79.609c-9.974,18.001-30.087,27.895-50.436,24.828l-87.737,0.815
	c-1.513-1.396-3.063-2.794-4.615-4.19l0,0V752.514L454.399,752.514z M664.789,753.096c-34.628-12.414-32.027-51.248-30.767-80.578
	c0.911-30.727-8.146-72.472,27.041-88.766c35.438-4.966,71.362-5.703,106.998-2.172c38.619,12.841,38.039,62.307,27.389,92.955
	c-21.841,15.517-51.771,5.703-77.28,8.34h-40.442c-5.471,25.257,7.951,45.702,37.747,36.818h58.214
	c0.736,13.927,1.998,39.26-18.195,36.776c-30.281,1.396-60.618,0.271-90.725-3.375l0,0L664.789,753.096L664.789,753.096z
	 M758.285,639.347c0.95-36.234-56.816-28.088-78.503-17.612c-5.45,16.178-5.081,34.218,16.353,27.699h62.15V639.347L758.285,639.347
	z M312,604.12c-65.312-7.721-112.489-66.187-106.282-131.634c5.122-62.811,52.064-114.215,102.325-149.674
	c78.348-56.371,173.572-84.4,269.978-79.455c57.885,1.824,115.263,11.368,170.625,28.36c-4.598-45.391,58.426-5.392,83.838-6.751
	c34.855,10.281,81.004,17.653,92.565,57.303c15.033,26.788,24.83,61.802-17.497,67c-49.911,17.594-96.872-16.799-139.043-38.059
	c5.469,14.083,8.107,31.599,25.991,34.489c39.728,19.321,88.146,36.547,130.103,12.609c32.452-10.902-7.428,37.477-26.052,33.326
	c-50.415,20.602-105.95,15.055-158.908,11.406c-45.352,0.214-34.178,57.728-16.894,83.101c10.065,14.276,18.894,29.949-5.045,15.131
	c-39.476-10.707-62.364-44.207-91.363-69.405c-30.221-24.363-86.339-31.774-111.091,3.452c-6.461,20.484-8.556,42.094-6.111,63.433
	l-45.486-22.113c-11.426-61.183-71.151-115.225-137.337-105.175c-49.659,3.528-88.513,57.029-68.806,103.272
	c16.101,41.202,62.54,61.53,103.741,45.43c1.183-0.465,2.366-0.969,3.53-1.475c21.784-12.957,28.941-41.162,15.965-62.927
	c-7.237-12.182-19.689-20.328-33.734-22.074c-39.939-10.941-39.028,49.968,0.485,32.315c42.287,20.641-25.12,50.938-44.906,26.459
	c-22.617-15.983-28.01-47.271-12.026-69.891c5.857-8.282,14.083-14.606,23.587-18.099c54.431-24.44,118.986,28.012,111.246,84.226
	c-4.713,53.966-62.208,84.304-113.399,75.498l0,0V604.12L312,604.12z M882.799,371.695c41.59-16.566,25.102-84.07-19.612-80.346
	c-23.565-0.039-42.691,19.029-42.731,42.598c-0.038,14.102,6.906,27.312,18.546,35.266
	C852.132,377.728,868.793,378.678,882.799,371.695L882.799,371.695z M853.626,360.872c-45.82-14.976-1.321-83.042,32.238-47.545
	c10.843,12.241,9.697,30.979-2.561,41.841C875.196,362.345,863.828,364.518,853.626,360.872L853.626,360.872z M879.229,332.666
	c13.135-30.085-49.387-0.426-7.953,3.453l4.132-1.144l3.727-2.309l0,0H879.229z"/>
</svg>
