<?xml version="1.0" encoding="utf-8"?>
<!-- Generator: Adobe Illustrator 18.0.0, SVG Export Plug-In . SVG Version: 6.00 Build 0)  -->
<!DOCTYPE svg PUBLIC "-//W3C//DTD SVG 1.1//EN" "http://www.w3.org/Graphics/SVG/1.1/DTD/svg11.dtd">
<svg version="1.1" id="图形" xmlns="http://www.w3.org/2000/svg" xmlns:xlink="http://www.w3.org/1999/xlink" x="0px" y="0px"
	 viewBox="0 0 100 100" enable-background="new 0 0 100 100" xml:space="preserve">
<g>
	<path fill="#CCCCCC" d="M9.197,76.241h81.605v11.658c0,3.219-2.61,5.829-5.829,5.829H15.026c-3.219,0-5.829-2.61-5.829-5.829
		V76.241z"/>
	<path fill="#CCCCCC" d="M20.855,6.273h58.29c6.439,0,11.658,5.22,11.658,11.658v52.461H9.197V17.931
		C9.197,11.492,14.417,6.273,20.855,6.273z"/>
	<path fill="#CCCCCC" d="M29.599,17.951h40.803c4.829,0,8.743,3.915,8.743,8.743s-3.915,8.743-8.743,8.743H29.599
		c-4.829,0-8.743-3.915-8.743-8.743S24.77,17.951,29.599,17.951z"/>
	<path fill="#CCCCCC" d="M29.599,41.267h40.803c4.829,0,8.743,3.915,8.743,8.743s-3.915,8.743-8.743,8.743H29.599
		c-4.829,0-8.743-3.915-8.743-8.743S24.77,41.267,29.599,41.267z"/>
</g>
</svg>
