<?xml version="1.0" encoding="utf-8"?>
<!-- Generator: Adobe Illustrator 16.0.0, SVG Export Plug-In . SVG Version: 6.00 Build 0)  -->
<!DOCTYPE svg PUBLIC "-//W3C//DTD SVG 1.1//EN" "http://www.w3.org/Graphics/SVG/1.1/DTD/svg11.dtd">
<svg version="1.1" id="图形" xmlns="http://www.w3.org/2000/svg" xmlns:xlink="http://www.w3.org/1999/xlink" x="0px" y="0px"
	 width="1000.637px" height="1000.678px" viewBox="0 0 1000.637 1000.678" enable-background="new 0 0 1000.637 1000.678"
	 xml:space="preserve">
<g>
	<polygon points="593.684,864.116 541.963,774.65 766.556,646.033 507.936,198.836 694.395,211.052 953.127,658.242 	"/>
	<g>
		<g>
			<path d="M437.028,179.879l-283.196-75.984l-75.99,281.826l258.621,447.222L695.649,627.07L437.028,179.879z M296.839,420.779
				c-52.466,4.193-98.391-34.911-102.59-87.376c-0.2-2.541-0.315-5.057-0.315-7.598c-1.911-50.35,37.227-92.83,87.581-94.998h0.11
				c52.466-4.194,98.4,34.938,102.596,87.381C388.416,370.655,349.284,416.578,296.839,420.779z"/>
		</g>
	</g>
</g>
</svg>
