<?xml version="1.0" encoding="utf-8"?>
<!-- Generator: Adobe Illustrator 16.0.0, SVG Export Plug-In . SVG Version: 6.00 Build 0)  -->
<!DOCTYPE svg PUBLIC "-//W3C//DTD SVG 1.1//EN" "http://www.w3.org/Graphics/SVG/1.1/DTD/svg11.dtd">
<svg version="1.1" id="图形" xmlns="http://www.w3.org/2000/svg" xmlns:xlink="http://www.w3.org/1999/xlink" x="0px" y="0px"
	 width="1000.637px" height="1000.678px" viewBox="0 0 1000.637 1000.678" enable-background="new 0 0 1000.637 1000.678"
	 xml:space="preserve">
<path id="定时任务.svg" fill="#CCCCCC" d="M641.816,516.744l12.571-13.138c36.512-41.895,32.146-105.45-9.751-141.943
	c-1.466-1.298-3.009-2.561-4.552-3.765l-14.004-12.214c-42.836-40.521-109.724-40.916-153.047-0.923l-10.99,11.557
	c80.513,24.654,146.197,83.316,179.696,160.537l0,0L641.816,516.744z M641.816,516.744H100.448
	c33.519-77.221,99.164-135.884,179.641-160.539l-10.897-11.556c-43.344-39.994-110.23-39.579-153.066,0.923l-13.908,12.213
	C58.254,391.757,50.142,454.938,84.113,498.9c1.205,1.563,2.466,3.088,3.764,4.593l12.573,13.137l0,0L641.816,516.744z
	 M641.816,516.744l295.704,128.731H255.038v-41.273h97.979v-129.09h43.155v170.363L641.816,516.744z M641.816,516.744
	l170.211,155.644c-49.122-36.396-109.986-53.336-170.813-47.541c-6.851-146.725-131.365-260.099-278.072-253.266
	C226.017,377.98,116.276,487.72,109.876,624.846c0.245,66.398,27.14,129.938,74.661,176.272l-59.152,56.609
	c-8.055,7.568-8.469,20.178-0.923,28.231c0.302,0.339,0.603,0.642,0.923,0.94c8.563,8.055,21.944,8.055,30.526,0l61.053-58.381
	c95.082,67.19,222.155,67.19,317.273,0l61.055,58.381c8.543,8.055,21.906,8.055,30.486,0c8.059-7.564,8.47-20.176,0.941-28.229
	c-0.3-0.34-0.602-0.641-0.941-0.943l-59.169-56.609l0,0L641.816,516.744z M228.219,340.471
	c-5.514-122.896,89.642-226.991,212.52-232.507c122.937-5.496,227.01,89.66,232.545,212.559
	c5.494,122.896-89.661,226.974-212.558,232.507c-3.351,0.132-6.663,0.208-9.975,0.208
	C330.64,555.739,231.118,460.601,228.219,340.471L228.219,340.471z"/>
</svg>
