<?xml version="1.0" encoding="utf-8"?>
<!-- Generator: Adobe Illustrator 16.0.0, SVG Export Plug-In . SVG Version: 6.00 Build 0)  -->
<!DOCTYPE svg PUBLIC "-//W3C//DTD SVG 1.1//EN" "http://www.w3.org/Graphics/SVG/1.1/DTD/svg11.dtd">
<svg version="1.1" id="图形" xmlns="http://www.w3.org/2000/svg" xmlns:xlink="http://www.w3.org/1999/xlink" x="0px" y="0px"
	 width="1000.637px" height="1000.678px" viewBox="0 0 1000.637 1000.678" enable-background="new 0 0 1000.637 1000.678"
	 xml:space="preserve">
<path id="ubuntu.svg" d="M572.801,280.151c-29.55-0.038-58.816,6.169-85.805,18.211L414.485,173.43
	c69.492-34.485,148.352-45.342,224.572-30.936c-0.343,3.891-0.551,7.771-0.551,11.776c0.38,70.65,57.963,127.607,128.623,127.228
	c26.343-0.133,52.022-8.428,73.507-23.715c50.048,56.786,80.453,128.225,86.642,203.677l-144.852,4.45
	c-12.829-106.037-102.849-185.788-209.664-185.76l0,0L572.801,280.151L572.801,280.151z M766.428,245.552
	c-50.447-0.229-91.158-41.319-90.911-91.765c0.246-50.447,41.317-91.149,91.766-90.911c50.296,0.228,90.91,41.052,90.91,91.338
	C858.002,204.746,816.97,245.599,766.428,245.552L766.428,245.552L766.428,245.552z M361.761,490.081
	c0.076,64.074,29.494,124.58,79.836,164.209l-71.713,126.023c-62.47-43.255-109.463-105.354-134.098-177.229
	c58.076-39.022,73.524-117.739,34.514-175.824c-10.087-15.004-23.259-27.673-38.632-37.162
	c22.747-75.917,70.194-142.051,134.81-187.914l76.363,122.663c-51.083,39.601-81.013,100.571-81.099,165.196l0,0L361.761,490.081z
	 M163.911,589.191c-50.447-0.229-91.148-41.3-90.911-91.756c0.237-50.445,41.318-91.158,91.765-90.919
	c50.286,0.237,90.92,41.062,90.92,91.348C255.477,548.385,214.444,589.229,163.911,589.191L163.911,589.191z M572.801,699.991
	c107.403,0.038,197.745-80.548,209.893-187.287l144.944,2.277c-5.864,81.989-40.235,159.33-97.174,218.623
	c-62.708-32.589-139.974-8.181-172.579,54.526c-7.855,15.106-12.603,31.619-13.986,48.587
	c-76.583,15.525-156.134,5.466-226.442-28.622l72.169-125.224c26.296,11.311,54.65,17.137,83.29,17.118l0,0L572.801,699.991
	L572.801,699.991z M771.343,755.108c50.446,0.247,91.157,41.337,90.911,91.783c-0.228,50.446-41.318,91.14-91.765,90.91
	c-50.277-0.228-90.911-41.072-90.911-91.348C679.768,795.912,720.821,755.07,771.343,755.108L771.343,755.108z"/>
</svg>
