<?xml version="1.0" encoding="utf-8"?>
<!-- Generator: Adobe Illustrator 16.0.0, SVG Export Plug-In . SVG Version: 6.00 Build 0)  -->
<!DOCTYPE svg PUBLIC "-//W3C//DTD SVG 1.1//EN" "http://www.w3.org/Graphics/SVG/1.1/DTD/svg11.dtd">
<svg version="1.1" id="图形" xmlns="http://www.w3.org/2000/svg" xmlns:xlink="http://www.w3.org/1999/xlink" x="0px" y="0px"
	 width="1000.637px" height="1000.678px" viewBox="15.167 -16.333 1000.637 1000.678"
	 enable-background="new 15.167 -16.333 1000.637 1000.678" xml:space="preserve">
<path id="恢复解冻.svg" d="M911.845,324.53H269.269c-22.812-0.034-41.381,18.438-41.447,41.282v512.976
	c0.034,22.876,18.603,41.349,41.447,41.349h642.577c22.809,0,41.412-18.473,41.412-41.349V365.812
	C953.191,342.969,934.589,324.496,911.845,324.53z M642.587,672.441H538.953V569.169h103.635V672.441z M117.483,293.305v-53.049
	c1.808-84.899,72.08-152.246,156.945-150.472c82.401,1.742,148.762,68.103,150.471,150.472v105.67h39.804V237.758
	c-2.005-106.854-90.256-191.853-197.11-189.847C163.531,49.85,79.651,133.73,77.712,237.758v55.481h39.771V293.305z"/>
</svg>
