<?xml version="1.0" encoding="utf-8"?>
<!-- Generator: Adobe Illustrator 16.0.0, SVG Export Plug-In . SVG Version: 6.00 Build 0)  -->
<!DOCTYPE svg PUBLIC "-//W3C//DTD SVG 1.1//EN" "http://www.w3.org/Graphics/SVG/1.1/DTD/svg11.dtd">
<svg version="1.1" id="图形" xmlns="http://www.w3.org/2000/svg" xmlns:xlink="http://www.w3.org/1999/xlink" x="0px" y="0px"
	 width="1000.637px" height="1000.678px" viewBox="15.167 -16.333 1000.637 1000.678"
	 enable-background="new 15.167 -16.333 1000.637 1000.678" xml:space="preserve">
<path id="leftbar-yonghu.svg" d="M505.489,45.795c121.151-10.853,228.14,78.569,238.935,199.692
	c10.853,121.152-78.483,228.139-199.692,238.991c-13.023,1.171-26.191,1.171-39.242,0
	C384.337,495.331,277.35,405.91,266.498,284.786C255.644,163.635,345.067,56.648,466.218,45.795
	C479.271,44.624,492.409,44.624,505.489,45.795L505.489,45.795z M415.638,557.592h199.692
	c163.594-6.911,301.938,119.724,309.593,283.26v18.335c0,61.576-138.631,63.919-309.593,63.919H415.582
	c-170.961,0.057-309.535,0.057-309.535-63.919v-18.335c7.54-163.593,145.972-290.229,309.592-283.316l0,0V557.592z"/>
</svg>
