<?xml version="1.0" encoding="utf-8"?>
<!-- Generator: Adobe Illustrator 16.0.0, SVG Export Plug-In . SVG Version: 6.00 Build 0)  -->
<!DOCTYPE svg PUBLIC "-//W3C//DTD SVG 1.1//EN" "http://www.w3.org/Graphics/SVG/1.1/DTD/svg11.dtd">
<svg version="1.1" id="图形" xmlns="http://www.w3.org/2000/svg" xmlns:xlink="http://www.w3.org/1999/xlink" x="0px" y="0px"
	 width="1000.637px" height="1000.678px" viewBox="0 0 1000.637 1000.678" enable-background="new 0 0 1000.637 1000.678"
	 xml:space="preserve">
<path id="qiandai.svg" d="M285.53,233.027h429.593c9.326,0.103,17.662-5.859,20.635-14.723l39.49-116.899
	c5.189-15.252-3.008-31.787-18.244-36.945c-3.143-1.059-6.42-1.588-9.701-1.537H253.351c-16.09-0.222-29.31,12.657-29.532,28.746
	c-0.034,3.314,0.479,6.593,1.538,9.736l39.541,116.899C267.853,227.187,276.188,233.13,285.53,233.027z M737.5,299.744
	c-4.135-6.217-11.104-9.958-18.549-10.009h-26.578V535.54h-57.734V289.735H282.03c-7.481-0.034-14.45,3.741-18.533,10.009
	C218.729,369.246,98.038,581.557,98.038,749.97c0,223.072,402.28,185.36,402.28,185.36S902.6,973.18,902.6,749.97
	C902.6,581.556,782.285,369.245,737.5,299.744z M526.553,733.982v27.943h-45.827v-26.305c-24.578-2.46-48.029-11.546-67.86-26.304
	l27.978-35.835c16.228,12.129,35.75,18.993,55.974,19.713c21.333,0,30.796-6.971,30.796-21.796
	c0-32.558-104.943-33.479-104.943-94.423c4.407-31.292,27.397-56.707,58.057-64.273v-29.668h45.828v29.104
	c21.658,3.178,41.813,12.947,57.732,28.013l-30.814,30.473c-11.613-10.487-26.645-16.466-42.309-16.739
	c-18.19,0-27.978,5.67-27.978,20.601c0,30.164,103.902,28.659,103.902,92.952c2.492,34.161-23.162,63.882-57.322,66.375
	C528.672,733.88,527.613,733.914,526.553,733.982z"/>
</svg>
