<?xml version="1.0" encoding="utf-8"?>
<!-- Generator: Adobe Illustrator 16.0.0, SVG Export Plug-In . SVG Version: 6.00 Build 0)  -->
<!DOCTYPE svg PUBLIC "-//W3C//DTD SVG 1.1//EN" "http://www.w3.org/Graphics/SVG/1.1/DTD/svg11.dtd">
<svg version="1.1" id="图形" xmlns="http://www.w3.org/2000/svg" xmlns:xlink="http://www.w3.org/1999/xlink" x="0px" y="0px"
	 width="1000.637px" height="1000.678px" viewBox="0 0 1000.637 1000.678" enable-background="new 0 0 1000.637 1000.678"
	 xml:space="preserve">
<path id="tanhao.svg" d="M914.715,655.951L644.654,171.41c-42.884-79.772-142.349-109.641-222.099-66.716
	c-28.29,15.212-51.502,38.404-66.692,66.716L85.804,656.123c-47.706,82.906-19.159,188.771,63.706,236.478
	c24.665,14.208,52.485,22.103,80.947,22.999h540.034c95.582-3.2,170.508-83.252,167.352-178.832
	C936.861,708.351,928.923,680.573,914.715,655.951z M500.472,766.894c-19.841,0.811-36.567-14.635-37.379-34.478
	c-0.768-19.841,14.678-36.567,34.521-37.379c19.84-0.768,36.566,14.678,37.379,34.477c0,0.513,0,1.025,0,1.451
	C535.206,750.381,519.844,766.382,500.472,766.894z M528.891,606.625c-0.598,15.617-13.228,28.032-28.846,28.332l0,0
	c-15.788-0.171-28.632-12.629-29.271-28.418l-13.996-271.276c-1.749-24.536,16.685-45.849,41.22-47.62
	c0.811-0.064,1.665-0.086,2.475-0.107l0,0c24.793,0.597,44.378,21.165,43.779,45.956c0,0.619-0.043,1.259-0.084,1.899
	L528.891,606.625z"/>
</svg>
