<?xml version="1.0" encoding="utf-8"?>
<!-- Generator: Adobe Illustrator 18.0.0, SVG Export Plug-In . SVG Version: 6.00 Build 0)  -->
<!DOCTYPE svg PUBLIC "-//W3C//DTD SVG 1.1//EN" "http://www.w3.org/Graphics/SVG/1.1/DTD/svg11.dtd">
<svg version="1.1" id="图形" xmlns="http://www.w3.org/2000/svg" xmlns:xlink="http://www.w3.org/1999/xlink" x="0px" y="0px"
	 viewBox="0 0 100 100" enable-background="new 0 0 100 100" xml:space="preserve">
<g>
	<g>
		<path fill="#CCCCCC" d="M82.065,6.275H17.935c-6.44,0-11.66,5.22-11.66,11.66v64.129c0,6.44,5.22,11.66,11.66,11.66h64.129
			c6.44,0,11.66-5.22,11.66-11.66V17.935C93.725,11.496,88.504,6.275,82.065,6.275z M56.314,76.235H18.909h-0.006v-5.83h37.411
			V76.235z M81.091,58.745H18.909h-0.006v-5.83h62.188V58.745z M81.091,41.255H18.909h-0.006v-5.83h62.188V41.255z M81.091,23.765
			H18.909h-0.006v-5.83h62.188V23.765z"/>
	</g>
</g>
</svg>
