<?xml version="1.0" encoding="utf-8"?>
<!-- Generator: Adobe Illustrator 18.0.0, SVG Export Plug-In . SVG Version: 6.00 Build 0)  -->
<!DOCTYPE svg PUBLIC "-//W3C//DTD SVG 1.1//EN" "http://www.w3.org/Graphics/SVG/1.1/DTD/svg11.dtd">
<svg version="1.1" id="图形" xmlns="http://www.w3.org/2000/svg" xmlns:xlink="http://www.w3.org/1999/xlink" x="0px" y="0px"
	 viewBox="0 0 100 100" enable-background="new 0 0 100 100" xml:space="preserve">
<path id="xinghaoweihu.svg" fill="#CCCCCC" d="M11.74,14.472h5.466c3.019,0,5.466,2.447,5.466,5.466v5.466
	c0,3.019-2.447,5.466-5.466,5.466H11.74c-3.019,0-5.466-2.447-5.466-5.466v-5.466C6.274,16.919,8.721,14.472,11.74,14.472z
	 M44.534,14.472H88.26c3.019,0,5.466,2.447,5.466,5.466v5.466c0,3.019-2.447,5.466-5.466,5.466H44.534
	c-3.019,0-5.466-2.447-5.466-5.466v-5.466C39.069,16.919,41.516,14.472,44.534,14.472z M11.74,41.801h5.466
	c3.019,0,5.466,2.447,5.466,5.466v5.466c0,3.019-2.447,5.466-5.466,5.466H11.74c-3.019,0-5.466-2.447-5.466-5.466v-5.466
	C6.274,44.248,8.721,41.801,11.74,41.801z M44.534,41.801H88.26c3.019,0,5.466,2.447,5.466,5.466v5.466
	c0,3.019-2.447,5.466-5.466,5.466H44.534c-3.019,0-5.466-2.447-5.466-5.466v-5.466C39.069,44.248,41.516,41.801,44.534,41.801z
	 M82.795,69.13h5.466c3.019,0,5.466,2.447,5.466,5.466v5.466c0,3.019-2.447,5.466-5.466,5.466h-5.466
	c-3.019,0-5.466-2.447-5.466-5.466v-5.466C77.329,71.577,79.776,69.13,82.795,69.13z M11.74,69.13h43.726
	c3.019,0,5.466,2.447,5.466,5.466v5.466c0,3.019-2.447,5.466-5.466,5.466H11.74c-3.019,0-5.466-2.447-5.466-5.466v-5.466
	C6.274,71.577,8.721,69.13,11.74,69.13z"/>
</svg>
