<?xml version="1.0" encoding="utf-8"?>
<!-- Generator: Adobe Illustrator 16.0.0, SVG Export Plug-In . SVG Version: 6.00 Build 0)  -->
<!DOCTYPE svg PUBLIC "-//W3C//DTD SVG 1.1//EN" "http://www.w3.org/Graphics/SVG/1.1/DTD/svg11.dtd">
<svg version="1.1" id="图形" xmlns="http://www.w3.org/2000/svg" xmlns:xlink="http://www.w3.org/1999/xlink" x="0px" y="0px"
	 width="1000.637px" height="1000.678px" viewBox="15.167 -16.333 1000.637 1000.678"
	 enable-background="new 15.167 -16.333 1000.637 1000.678" xml:space="preserve">
<g>
	<g>
		<path d="M515.485,46.277c-241.751,0-437.729,195.979-437.729,437.729c0,241.75,195.978,437.729,437.729,437.729
			s437.729-195.979,437.729-437.729C953.213,242.255,757.236,46.277,515.485,46.277z M801.758,329.121
			c-0.312,7.152-3.255,13.942-8.254,19.072L447.32,710.927c-10.218,10.801-27.268,11.278-38.077,1.068
			c-0.379-0.346-0.731-0.708-1.086-1.068L220.605,513.65c-11.213-11.51-10.975-29.94,0.534-41.161
			c5.121-4.99,11.903-7.916,19.048-8.229c7.406,0.009,14.483,3.05,19.58,8.418l148.39,156.306
			c10.219,10.818,27.268,11.312,38.078,1.085c0.37-0.345,0.732-0.707,1.085-1.085l307.021-321.753
			c5.113-5.368,12.184-8.409,19.599-8.418C789.986,299.503,802.449,313.068,801.758,329.121z"/>
	</g>
</g>
</svg>
